<svg width="200" height="200" viewBox="0 0 200 200" fill="none" xmlns="http://www.w3.org/2000/svg">
<path d="M144.847 44.8252C144.847 46.8712 144.241 48.8713 143.104 50.5725C141.967 52.2738 140.352 53.5997 138.462 54.3827C136.572 55.1657 134.492 55.3705 132.485 54.9714C130.479 54.5722 128.636 53.587 127.189 52.1402C125.742 50.6934 124.757 48.8501 124.358 46.8434C123.959 44.8366 124.164 42.7566 124.947 40.8663C125.73 38.976 127.056 37.3603 128.757 36.2236C130.458 35.0869 132.458 34.4802 134.503 34.4802C137.247 34.4802 139.878 35.5701 141.818 37.5102C143.758 39.4502 144.847 42.0815 144.847 44.8252ZM186.844 103.136C170.147 133.223 139.055 149.482 94.4032 151.499L75.4393 195.819C74.9063 197.063 74.0189 198.123 72.8876 198.867C71.7564 199.61 70.4314 200.004 69.0777 200H68.6381C67.2171 199.911 65.8584 199.384 64.7487 198.492C63.639 197.6 62.8327 196.386 62.4403 195.017L49.6828 150.335L5.03125 137.551C3.6587 137.165 2.43937 136.364 1.54108 135.256C0.642787 134.149 0.109697 132.791 0.0151767 131.368C-0.0793434 129.946 0.269353 128.529 1.01327 127.312C1.75719 126.096 2.85977 125.14 4.16925 124.576L48.4846 105.611C50.5103 60.972 66.7676 29.8853 96.8341 13.1781C118.169 1.33312 142.296 -0.477252 158.794 0.0917218C174.862 0.643454 189.826 3.77281 192.292 5.26421C193.298 5.8576 194.138 6.6971 194.731 7.70391C196.188 10.1608 199.326 25.1266 199.903 41.1958C200.489 57.6616 198.688 81.7999 186.844 103.136ZM139.279 128.137C131.311 125.099 124.372 119.855 119.274 113.019C114.176 106.183 111.128 98.0369 110.488 89.5327C101.987 88.8938 93.8429 85.8475 87.0088 80.7501C80.1748 75.6527 74.933 68.7149 71.8965 60.7478C65.8912 74.4204 62.6443 90.9696 62.1559 110.395C62.1253 111.718 61.7149 113.004 60.9737 114.1C60.2324 115.196 59.1915 116.056 57.9752 116.576L27.4691 129.628L57.1649 138.128C58.2916 138.451 59.3174 139.056 60.1454 139.886C60.9734 140.715 61.5764 141.742 61.8973 142.87L70.3793 172.56L83.4472 142.042C83.9691 140.827 84.8292 139.788 85.9249 139.048C87.0207 138.309 88.306 137.899 89.6278 137.87C109.034 137.404 125.585 134.16 139.279 128.137ZM183.137 16.8678C170.94 14.2816 127.883 7.38494 96.6789 29.5836C91.5141 33.2689 86.8743 37.6395 82.8869 42.5751C82.5602 47.0787 83.22 51.5993 84.8204 55.8216C86.4208 60.0438 88.9231 63.8659 92.1528 67.0212C95.3825 70.1765 99.2617 72.589 103.52 74.0903C107.778 75.5916 112.312 76.1456 116.807 75.7136C117.819 75.6161 118.841 75.7437 119.798 76.0875C120.755 76.4312 121.625 76.9825 122.344 77.7018C123.063 78.4211 123.614 79.2906 123.958 80.248C124.302 81.2054 124.429 82.227 124.332 83.2395C123.901 87.7359 124.456 92.2721 125.959 96.5316C127.463 100.791 129.877 104.671 133.035 107.9C136.193 111.13 140.018 113.631 144.242 115.229C148.466 116.828 152.988 117.484 157.493 117.154C162.41 113.165 166.76 108.525 170.423 103.361C192.619 72.179 185.723 29.0835 183.137 16.8678Z" fill="white"/>
</svg>
