<svg width="227" height="74" viewBox="0 0 227 74" fill="none" xmlns="http://www.w3.org/2000/svg">
<line y1="-0.5" x2="47.4817" y2="-0.5" transform="matrix(-0.0053967 -0.999985 0.999968 -0.00801981 24.6799 64.9717)" stroke="#FF6500"/>
<line y1="-0.5" x2="47.481" y2="-0.5" transform="matrix(-0.00272518 -0.999996 0.999992 -0.0040501 81.6152 64.9717)" stroke="#FF6500"/>
<path d="M34.1238 64.8451L34.1167 61.0818L34.3751 17.354" stroke="#FF6500"/>
<path d="M91.3276 64.9809L91.4489 61.2187L91.5789 17.4909" stroke="#FF6500"/>
<path d="M29.2711 64.9808L29.2711 9.84034" stroke="#FF6500"/>
<path d="M86.2064 64.9808L86.2064 9.84034" stroke="#FF6500"/>
<path d="M26.2419 14.9693C26.2419 16.5544 25.0079 17.8077 23.5241 17.8077C22.0404 17.8077 20.8064 16.5544 20.8064 14.9693C20.8064 13.3841 22.0404 12.1308 23.5241 12.1308C25.0079 12.1308 26.2419 13.3841 26.2419 14.9693Z" stroke="#FF6500"/>
<path d="M83.2419 14.9693C83.2419 16.5544 82.0079 17.8077 80.5241 17.8077C79.0404 17.8077 77.8064 16.5544 77.8064 14.9693C77.8064 13.3841 79.0404 12.1308 80.5241 12.1308C82.0079 12.1308 83.2419 13.3841 83.2419 14.9693Z" stroke="#FF6500"/>
<path d="M31.8387 14.9693C31.8387 16.5544 33.0727 17.8077 34.5564 17.8077C36.0402 17.8077 37.2742 16.5544 37.2742 14.9693C37.2742 13.3841 36.0402 12.1308 34.5564 12.1308C33.0727 12.1308 31.8387 13.3841 31.8387 14.9693Z" stroke="#FF6500"/>
<path d="M89.7581 14.9693C89.7581 16.5544 90.9921 17.8077 92.4759 17.8077C93.9596 17.8077 95.1936 16.5544 95.1936 14.9693C95.1936 13.3841 93.9596 12.1308 92.4759 12.1308C90.9921 12.1308 89.7581 13.3841 89.7581 14.9693Z" stroke="#FF6500"/>
<path d="M26.3226 7.33846C26.3226 8.92362 27.5565 10.1769 29.0403 10.1769C30.5241 10.1769 31.7581 8.92362 31.7581 7.33846C31.7581 5.75331 30.5241 4.5 29.0403 4.5C27.5565 4.5 26.3226 5.75331 26.3226 7.33846Z" stroke="#FF6500"/>
<path d="M83.3226 7.33846C83.3226 8.92362 84.5565 10.1769 86.0403 10.1769C87.5241 10.1769 88.7581 8.92362 88.7581 7.33846C88.7581 5.75331 87.5241 4.5 86.0403 4.5C84.5565 4.5 83.3226 5.75331 83.3226 7.33846Z" stroke="#FF6500"/>
<rect x="1" y="55.5077" width="22.9839" height="1.9077" fill="#FF6500"/>
<rect x="91.0968" y="55.5077" width="23.9032" height="1.9077" fill="#FF6500"/>
<rect x="34.0968" y="53.6" width="46.8871" height="3.81539" fill="#FF6500"/>
<path d="M1 55.5077C5.75172 55.3765 16.817 47.5622 23.0645 17.3538" stroke="#FF6500" stroke-width="3"/>
<path d="M114.972 55.6509C110.14 55.5519 98.8523 47.7286 92.3561 17.2266" stroke="#FF6500" stroke-width="3"/>
<path d="M34.0968 23.0769C40.3126 28.1155 58.3922 35.1695 80.9839 23.0769" stroke="#FF6500"/>
<path d="M34.0968 24.0308C40.3126 29.0693 58.3922 36.1233 80.9839 24.0308" stroke="#FF6500"/>
<path d="M34.0968 24.9846C40.3126 30.0232 58.3922 37.0772 80.9839 24.9846" stroke="#FF6500"/>
<path d="M34.0968 58.3693C56.8036 55.7088 58.3441 55.9453 80.9839 58.3693" stroke="#FF6500" stroke-width="5"/>
<rect x="20.3064" y="63.1385" width="17.4677" height="2.86154" fill="#FF6500"/>
<rect x="77.3064" y="63.1385" width="18.3871" height="2.86154" fill="#FF6500"/>
<path d="M133.99 11.94V33H128.86V11.94H133.99ZM171.93 11.94V16.05H166.35V33H161.22V16.05H155.64V11.94H171.93Z" fill="#FF6500"/>
<path d="M146.5 22.5C147.318 22.5 148.102 22.8161 148.68 23.3787C149.259 23.9413 149.583 24.7044 149.583 25.5C149.583 26.2956 149.259 27.0587 148.68 27.6213C148.102 28.1839 147.318 28.5 146.5 28.5C145.682 28.5 144.898 28.1839 144.32 27.6213C143.741 27.0587 143.416 26.2956 143.416 25.5C143.416 24.7044 143.741 23.9413 144.32 23.3787C144.898 22.8161 145.682 22.5 146.5 22.5ZM146.5 24C146.091 24 145.699 24.158 145.41 24.4393C145.121 24.7206 144.958 25.1022 144.958 25.5C144.958 25.8978 145.121 26.2794 145.41 26.5607C145.699 26.842 146.091 27 146.5 27C146.909 27 147.301 26.842 147.59 26.5607C147.879 26.2794 148.042 25.8978 148.042 25.5C148.042 25.1022 147.879 24.7206 147.59 24.4393C147.301 24.158 146.909 24 146.5 24ZM144.958 33C144.765 33 144.604 32.865 144.573 32.685L144.288 30.6975C143.802 30.51 143.386 30.255 142.985 29.955L141.065 30.7125C140.896 30.7725 140.688 30.7125 140.595 30.5475L139.053 27.9525C139.006 27.8752 138.989 27.7839 139.007 27.6955C139.024 27.6072 139.073 27.5279 139.146 27.4725L140.772 26.2275L140.718 25.5L140.772 24.75L139.146 23.5275C139.073 23.4721 139.024 23.3928 139.007 23.3045C138.989 23.2161 139.006 23.1248 139.053 23.0475L140.595 20.4525C140.688 20.2875 140.896 20.22 141.065 20.2875L142.985 21.0375C143.386 20.745 143.802 20.49 144.288 20.3025L144.573 18.315C144.604 18.135 144.765 18 144.958 18H148.042C148.234 18 148.396 18.135 148.427 18.315L148.712 20.3025C149.198 20.49 149.614 20.745 150.015 21.0375L151.935 20.2875C152.104 20.22 152.312 20.2875 152.405 20.4525L153.947 23.0475C154.047 23.2125 154.001 23.415 153.854 23.5275L152.228 24.75L152.281 25.5L152.228 26.25L153.854 27.4725C154.001 27.585 154.047 27.7875 153.947 27.9525L152.405 30.5475C152.312 30.7125 152.104 30.78 151.935 30.7125L150.015 29.9625C149.614 30.255 149.198 30.51 148.712 30.6975L148.427 32.685C148.396 32.865 148.234 33 148.042 33H144.958ZM145.922 19.5L145.637 21.4575C144.712 21.645 143.894 22.125 143.301 22.7925L141.443 22.0125L140.865 22.9875L142.491 24.15C142.183 25.025 142.183 25.975 142.491 26.85L140.857 28.02L141.435 28.995L143.309 28.215C143.902 28.875 144.712 29.355 145.629 29.535L145.914 31.5H147.086L147.371 29.5425C148.288 29.355 149.098 28.875 149.691 28.215L151.565 28.995L152.143 28.02L150.508 26.8575C150.817 25.98 150.817 25.0275 150.508 24.15L152.135 22.9875L151.557 22.0125L149.699 22.7925C149.093 22.1102 148.272 21.6433 147.363 21.465L147.078 19.5H145.922Z" fill="#FF6500"/>
<path d="M141.61 51.2C142.83 51.46 143.81 52.07 144.55 53.03C145.29 53.97 145.66 55.05 145.66 56.27C145.66 58.03 145.04 59.43 143.8 60.47C142.58 61.49 140.87 62 138.67 62H128.86V40.94H138.34C140.48 40.94 142.15 41.43 143.35 42.41C144.57 43.39 145.18 44.72 145.18 46.4C145.18 47.64 144.85 48.67 144.19 49.49C143.55 50.31 142.69 50.88 141.61 51.2ZM133.99 49.46H137.35C138.19 49.46 138.83 49.28 139.27 48.92C139.73 48.54 139.96 47.99 139.96 47.27C139.96 46.55 139.73 46 139.27 45.62C138.83 45.24 138.19 45.05 137.35 45.05H133.99V49.46ZM137.77 57.86C138.63 57.86 139.29 57.67 139.75 57.29C140.23 56.89 140.47 56.32 140.47 55.58C140.47 54.84 140.22 54.26 139.72 53.84C139.24 53.42 138.57 53.21 137.71 53.21H133.99V57.86H137.77ZM153.765 48.05C154.365 47.13 155.115 46.41 156.015 45.89C156.915 45.35 157.915 45.08 159.015 45.08V50.51H157.605C156.325 50.51 155.365 50.79 154.725 51.35C154.085 51.89 153.765 52.85 153.765 54.23V62H148.635V45.26H153.765V48.05ZM164.047 43.52C163.147 43.52 162.407 43.26 161.827 42.74C161.267 42.2 160.987 41.54 160.987 40.76C160.987 39.96 161.267 39.3 161.827 38.78C162.407 38.24 163.147 37.97 164.047 37.97C164.927 37.97 165.647 38.24 166.207 38.78C166.787 39.3 167.077 39.96 167.077 40.76C167.077 41.54 166.787 42.2 166.207 42.74C165.647 43.26 164.927 43.52 164.047 43.52ZM166.597 45.26V62H161.467V45.26H166.597ZM169.295 53.6C169.295 51.88 169.615 50.37 170.255 49.07C170.915 47.77 171.805 46.77 172.925 46.07C174.045 45.37 175.295 45.02 176.675 45.02C177.775 45.02 178.775 45.25 179.675 45.71C180.595 46.17 181.315 46.79 181.835 47.57V39.8H186.965V62H181.835V59.6C181.355 60.4 180.665 61.04 179.765 61.52C178.885 62 177.855 62.24 176.675 62.24C175.295 62.24 174.045 61.89 172.925 61.19C171.805 60.47 170.915 59.46 170.255 58.16C169.615 56.84 169.295 55.32 169.295 53.6ZM181.835 53.63C181.835 52.35 181.475 51.34 180.755 50.6C180.055 49.86 179.195 49.49 178.175 49.49C177.155 49.49 176.285 49.86 175.565 50.6C174.865 51.32 174.515 52.32 174.515 53.6C174.515 54.88 174.865 55.9 175.565 56.66C176.285 57.4 177.155 57.77 178.175 57.77C179.195 57.77 180.055 57.4 180.755 56.66C181.475 55.92 181.835 54.91 181.835 53.63ZM197.036 45.02C198.216 45.02 199.246 45.26 200.126 45.74C201.026 46.22 201.716 46.85 202.196 47.63V45.26H207.326V61.97C207.326 63.51 207.016 64.9 206.396 66.14C205.796 67.4 204.866 68.4 203.606 69.14C202.366 69.88 200.816 70.25 198.956 70.25C196.476 70.25 194.466 69.66 192.926 68.48C191.386 67.32 190.506 65.74 190.286 63.74H195.356C195.516 64.38 195.896 64.88 196.496 65.24C197.096 65.62 197.836 65.81 198.716 65.81C199.776 65.81 200.616 65.5 201.236 64.88C201.876 64.28 202.196 63.31 202.196 61.97V59.6C201.696 60.38 201.006 61.02 200.126 61.52C199.246 62 198.216 62.24 197.036 62.24C195.656 62.24 194.406 61.89 193.286 61.19C192.166 60.47 191.276 59.46 190.616 58.16C189.976 56.84 189.656 55.32 189.656 53.6C189.656 51.88 189.976 50.37 190.616 49.07C191.276 47.77 192.166 46.77 193.286 46.07C194.406 45.37 195.656 45.02 197.036 45.02ZM202.196 53.63C202.196 52.35 201.836 51.34 201.116 50.6C200.416 49.86 199.556 49.49 198.536 49.49C197.516 49.49 196.646 49.86 195.926 50.6C195.226 51.32 194.876 52.32 194.876 53.6C194.876 54.88 195.226 55.9 195.926 56.66C196.646 57.4 197.516 57.77 198.536 57.77C199.556 57.77 200.416 57.4 201.116 56.66C201.836 55.92 202.196 54.91 202.196 53.63ZM226.818 53.36C226.818 53.84 226.788 54.34 226.728 54.86H215.118C215.198 55.9 215.528 56.7 216.108 57.26C216.708 57.8 217.438 58.07 218.298 58.07C219.578 58.07 220.468 57.53 220.968 56.45H226.428C226.148 57.55 225.638 58.54 224.898 59.42C224.178 60.3 223.268 60.99 222.168 61.49C221.068 61.99 219.838 62.24 218.478 62.24C216.838 62.24 215.378 61.89 214.098 61.19C212.818 60.49 211.818 59.49 211.098 58.19C210.378 56.89 210.018 55.37 210.018 53.63C210.018 51.89 210.368 50.37 211.068 49.07C211.788 47.77 212.788 46.77 214.068 46.07C215.348 45.37 216.818 45.02 218.478 45.02C220.098 45.02 221.538 45.36 222.798 46.04C224.058 46.72 225.038 47.69 225.738 48.95C226.458 50.21 226.818 51.68 226.818 53.36ZM221.568 52.01C221.568 51.13 221.268 50.43 220.668 49.91C220.068 49.39 219.318 49.13 218.418 49.13C217.558 49.13 216.828 49.38 216.228 49.88C215.648 50.38 215.288 51.09 215.148 52.01H221.568Z" fill="#FF6500"/>
</svg>
