<svg width="357" height="239" viewBox="0 0 357 239" fill="none" xmlns="http://www.w3.org/2000/svg">
<mask id="path-1-outside-1_392_919" maskUnits="userSpaceOnUse" x="59" y="178" width="241" height="56" fill="black">
<rect fill="white" x="59" y="178" width="241" height="56"/>
<path d="M67.45 184.1V219H60.45V184.1H67.45ZM121.944 184.1V189.75H112.644V219H105.644V189.75H96.3441V184.1H121.944ZM158.766 201.1C160.732 201.467 162.349 202.45 163.616 204.05C164.882 205.65 165.516 207.483 165.516 209.55C165.516 211.417 165.049 213.067 164.116 214.5C163.216 215.9 161.899 217 160.166 217.8C158.432 218.6 156.382 219 154.016 219H138.966V184.1H153.366C155.732 184.1 157.766 184.483 159.466 185.25C161.199 186.017 162.499 187.083 163.366 188.45C164.266 189.817 164.716 191.367 164.716 193.1C164.716 195.133 164.166 196.833 163.066 198.2C161.999 199.567 160.566 200.533 158.766 201.1ZM145.966 198.5H152.366C154.032 198.5 155.316 198.133 156.216 197.4C157.116 196.633 157.566 195.55 157.566 194.15C157.566 192.75 157.116 191.667 156.216 190.9C155.316 190.133 154.032 189.75 152.366 189.75H145.966V198.5ZM153.016 213.3C154.716 213.3 156.032 212.9 156.966 212.1C157.932 211.3 158.416 210.167 158.416 208.7C158.416 207.2 157.916 206.033 156.916 205.2C155.916 204.333 154.566 203.9 152.866 203.9H145.966V213.3H153.016ZM178.095 195.6C178.995 194.133 180.161 192.983 181.595 192.15C183.061 191.317 184.728 190.9 186.595 190.9V198.25H184.745C182.545 198.25 180.878 198.767 179.745 199.8C178.645 200.833 178.095 202.633 178.095 205.2V219H171.095V191.3H178.095V195.6ZM194.859 188C193.626 188 192.593 187.617 191.759 186.85C190.959 186.05 190.559 185.067 190.559 183.9C190.559 182.733 190.959 181.767 191.759 181C192.593 180.2 193.626 179.8 194.859 179.8C196.093 179.8 197.109 180.2 197.909 181C198.743 181.767 199.159 182.733 199.159 183.9C199.159 185.067 198.743 186.05 197.909 186.85C197.109 187.617 196.093 188 194.859 188ZM198.309 191.3V219H191.309V191.3H198.309ZM203.425 205.05C203.425 202.25 203.975 199.767 205.075 197.6C206.209 195.433 207.742 193.767 209.675 192.6C211.609 191.433 213.759 190.85 216.125 190.85C217.925 190.85 219.642 191.25 221.275 192.05C222.909 192.817 224.209 193.85 225.175 195.15V182H232.275V219H225.175V214.9C224.309 216.267 223.092 217.367 221.525 218.2C219.959 219.033 218.142 219.45 216.075 219.45C213.742 219.45 211.609 218.85 209.675 217.65C207.742 216.45 206.209 214.767 205.075 212.6C203.975 210.4 203.425 207.883 203.425 205.05ZM225.225 205.15C225.225 203.45 224.892 202 224.225 200.8C223.559 199.567 222.659 198.633 221.525 198C220.392 197.333 219.175 197 217.875 197C216.575 197 215.375 197.317 214.275 197.95C213.175 198.583 212.275 199.517 211.575 200.75C210.909 201.95 210.575 203.383 210.575 205.05C210.575 206.717 210.909 208.183 211.575 209.45C212.275 210.683 213.175 211.633 214.275 212.3C215.409 212.967 216.609 213.3 217.875 213.3C219.175 213.3 220.392 212.983 221.525 212.35C222.659 211.683 223.559 210.75 224.225 209.55C224.892 208.317 225.225 206.85 225.225 205.15ZM249.962 190.85C252.029 190.85 253.845 191.267 255.412 192.1C256.979 192.9 258.212 193.95 259.112 195.25V191.3H266.162V219.2C266.162 221.767 265.645 224.05 264.612 226.05C263.579 228.083 262.029 229.683 259.962 230.85C257.895 232.05 255.395 232.65 252.462 232.65C248.529 232.65 245.295 231.733 242.762 229.9C240.262 228.067 238.845 225.567 238.512 222.4H245.462C245.829 223.667 246.612 224.667 247.812 225.4C249.045 226.167 250.529 226.55 252.262 226.55C254.295 226.55 255.945 225.933 257.212 224.7C258.479 223.5 259.112 221.667 259.112 219.2V214.9C258.212 216.2 256.962 217.283 255.362 218.15C253.795 219.017 251.995 219.45 249.962 219.45C247.629 219.45 245.495 218.85 243.562 217.65C241.629 216.45 240.095 214.767 238.962 212.6C237.862 210.4 237.312 207.883 237.312 205.05C237.312 202.25 237.862 199.767 238.962 197.6C240.095 195.433 241.612 193.767 243.512 192.6C245.445 191.433 247.595 190.85 249.962 190.85ZM259.112 205.15C259.112 203.45 258.779 202 258.112 200.8C257.445 199.567 256.545 198.633 255.412 198C254.279 197.333 253.062 197 251.762 197C250.462 197 249.262 197.317 248.162 197.95C247.062 198.583 246.162 199.517 245.462 200.75C244.795 201.95 244.462 203.383 244.462 205.05C244.462 206.717 244.795 208.183 245.462 209.45C246.162 210.683 247.062 211.633 248.162 212.3C249.295 212.967 250.495 213.3 251.762 213.3C253.062 213.3 254.279 212.983 255.412 212.35C256.545 211.683 257.445 210.75 258.112 209.55C258.779 208.317 259.112 206.85 259.112 205.15ZM298.749 204.55C298.749 205.55 298.682 206.45 298.549 207.25H278.299C278.465 209.25 279.165 210.817 280.399 211.95C281.632 213.083 283.149 213.65 284.949 213.65C287.549 213.65 289.399 212.533 290.499 210.3H298.049C297.249 212.967 295.715 215.167 293.449 216.9C291.182 218.6 288.399 219.45 285.099 219.45C282.432 219.45 280.032 218.867 277.899 217.7C275.799 216.5 274.149 214.817 272.949 212.65C271.782 210.483 271.199 207.983 271.199 205.15C271.199 202.283 271.782 199.767 272.949 197.6C274.115 195.433 275.749 193.767 277.849 192.6C279.949 191.433 282.365 190.85 285.099 190.85C287.732 190.85 290.082 191.417 292.149 192.55C294.249 193.683 295.865 195.3 296.999 197.4C298.165 199.467 298.749 201.85 298.749 204.55ZM291.499 202.55C291.465 200.75 290.815 199.317 289.549 198.25C288.282 197.15 286.732 196.6 284.899 196.6C283.165 196.6 281.699 197.133 280.499 198.2C279.332 199.233 278.615 200.683 278.349 202.55H291.499Z"/>
</mask>
<path d="M67.45 184.1V219H60.45V184.1H67.45ZM121.944 184.1V189.75H112.644V219H105.644V189.75H96.3441V184.1H121.944ZM158.766 201.1C160.732 201.467 162.349 202.45 163.616 204.05C164.882 205.65 165.516 207.483 165.516 209.55C165.516 211.417 165.049 213.067 164.116 214.5C163.216 215.9 161.899 217 160.166 217.8C158.432 218.6 156.382 219 154.016 219H138.966V184.1H153.366C155.732 184.1 157.766 184.483 159.466 185.25C161.199 186.017 162.499 187.083 163.366 188.45C164.266 189.817 164.716 191.367 164.716 193.1C164.716 195.133 164.166 196.833 163.066 198.2C161.999 199.567 160.566 200.533 158.766 201.1ZM145.966 198.5H152.366C154.032 198.5 155.316 198.133 156.216 197.4C157.116 196.633 157.566 195.55 157.566 194.15C157.566 192.75 157.116 191.667 156.216 190.9C155.316 190.133 154.032 189.75 152.366 189.75H145.966V198.5ZM153.016 213.3C154.716 213.3 156.032 212.9 156.966 212.1C157.932 211.3 158.416 210.167 158.416 208.7C158.416 207.2 157.916 206.033 156.916 205.2C155.916 204.333 154.566 203.9 152.866 203.9H145.966V213.3H153.016ZM178.095 195.6C178.995 194.133 180.161 192.983 181.595 192.15C183.061 191.317 184.728 190.9 186.595 190.9V198.25H184.745C182.545 198.25 180.878 198.767 179.745 199.8C178.645 200.833 178.095 202.633 178.095 205.2V219H171.095V191.3H178.095V195.6ZM194.859 188C193.626 188 192.593 187.617 191.759 186.85C190.959 186.05 190.559 185.067 190.559 183.9C190.559 182.733 190.959 181.767 191.759 181C192.593 180.2 193.626 179.8 194.859 179.8C196.093 179.8 197.109 180.2 197.909 181C198.743 181.767 199.159 182.733 199.159 183.9C199.159 185.067 198.743 186.05 197.909 186.85C197.109 187.617 196.093 188 194.859 188ZM198.309 191.3V219H191.309V191.3H198.309ZM203.425 205.05C203.425 202.25 203.975 199.767 205.075 197.6C206.209 195.433 207.742 193.767 209.675 192.6C211.609 191.433 213.759 190.85 216.125 190.85C217.925 190.85 219.642 191.25 221.275 192.05C222.909 192.817 224.209 193.85 225.175 195.15V182H232.275V219H225.175V214.9C224.309 216.267 223.092 217.367 221.525 218.2C219.959 219.033 218.142 219.45 216.075 219.45C213.742 219.45 211.609 218.85 209.675 217.65C207.742 216.45 206.209 214.767 205.075 212.6C203.975 210.4 203.425 207.883 203.425 205.05ZM225.225 205.15C225.225 203.45 224.892 202 224.225 200.8C223.559 199.567 222.659 198.633 221.525 198C220.392 197.333 219.175 197 217.875 197C216.575 197 215.375 197.317 214.275 197.95C213.175 198.583 212.275 199.517 211.575 200.75C210.909 201.95 210.575 203.383 210.575 205.05C210.575 206.717 210.909 208.183 211.575 209.45C212.275 210.683 213.175 211.633 214.275 212.3C215.409 212.967 216.609 213.3 217.875 213.3C219.175 213.3 220.392 212.983 221.525 212.35C222.659 211.683 223.559 210.75 224.225 209.55C224.892 208.317 225.225 206.85 225.225 205.15ZM249.962 190.85C252.029 190.85 253.845 191.267 255.412 192.1C256.979 192.9 258.212 193.95 259.112 195.25V191.3H266.162V219.2C266.162 221.767 265.645 224.05 264.612 226.05C263.579 228.083 262.029 229.683 259.962 230.85C257.895 232.05 255.395 232.65 252.462 232.65C248.529 232.65 245.295 231.733 242.762 229.9C240.262 228.067 238.845 225.567 238.512 222.4H245.462C245.829 223.667 246.612 224.667 247.812 225.4C249.045 226.167 250.529 226.55 252.262 226.55C254.295 226.55 255.945 225.933 257.212 224.7C258.479 223.5 259.112 221.667 259.112 219.2V214.9C258.212 216.2 256.962 217.283 255.362 218.15C253.795 219.017 251.995 219.45 249.962 219.45C247.629 219.45 245.495 218.85 243.562 217.65C241.629 216.45 240.095 214.767 238.962 212.6C237.862 210.4 237.312 207.883 237.312 205.05C237.312 202.25 237.862 199.767 238.962 197.6C240.095 195.433 241.612 193.767 243.512 192.6C245.445 191.433 247.595 190.85 249.962 190.85ZM259.112 205.15C259.112 203.45 258.779 202 258.112 200.8C257.445 199.567 256.545 198.633 255.412 198C254.279 197.333 253.062 197 251.762 197C250.462 197 249.262 197.317 248.162 197.95C247.062 198.583 246.162 199.517 245.462 200.75C244.795 201.95 244.462 203.383 244.462 205.05C244.462 206.717 244.795 208.183 245.462 209.45C246.162 210.683 247.062 211.633 248.162 212.3C249.295 212.967 250.495 213.3 251.762 213.3C253.062 213.3 254.279 212.983 255.412 212.35C256.545 211.683 257.445 210.75 258.112 209.55C258.779 208.317 259.112 206.85 259.112 205.15ZM298.749 204.55C298.749 205.55 298.682 206.45 298.549 207.25H278.299C278.465 209.25 279.165 210.817 280.399 211.95C281.632 213.083 283.149 213.65 284.949 213.65C287.549 213.65 289.399 212.533 290.499 210.3H298.049C297.249 212.967 295.715 215.167 293.449 216.9C291.182 218.6 288.399 219.45 285.099 219.45C282.432 219.45 280.032 218.867 277.899 217.7C275.799 216.5 274.149 214.817 272.949 212.65C271.782 210.483 271.199 207.983 271.199 205.15C271.199 202.283 271.782 199.767 272.949 197.6C274.115 195.433 275.749 193.767 277.849 192.6C279.949 191.433 282.365 190.85 285.099 190.85C287.732 190.85 290.082 191.417 292.149 192.55C294.249 193.683 295.865 195.3 296.999 197.4C298.165 199.467 298.749 201.85 298.749 204.55ZM291.499 202.55C291.465 200.75 290.815 199.317 289.549 198.25C288.282 197.15 286.732 196.6 284.899 196.6C283.165 196.6 281.699 197.133 280.499 198.2C279.332 199.233 278.615 200.683 278.349 202.55H291.499Z" fill="#FF6500"/>
<path d="M67.45 184.1H68.45V183.1H67.45V184.1ZM67.45 219V220H68.45V219H67.45ZM60.45 219H59.45V220H60.45V219ZM60.45 184.1V183.1H59.45V184.1H60.45ZM66.45 184.1V219H68.45V184.1H66.45ZM67.45 218H60.45V220H67.45V218ZM61.45 219V184.1H59.45V219H61.45ZM60.45 185.1H67.45V183.1H60.45V185.1ZM121.944 184.1H122.944V183.1H121.944V184.1ZM121.944 189.75V190.75H122.944V189.75H121.944ZM112.644 189.75V188.75H111.644V189.75H112.644ZM112.644 219V220H113.644V219H112.644ZM105.644 219H104.644V220H105.644V219ZM105.644 189.75H106.644V188.75H105.644V189.75ZM96.3441 189.75H95.3441V190.75H96.3441V189.75ZM96.3441 184.1V183.1H95.3441V184.1H96.3441ZM120.944 184.1V189.75H122.944V184.1H120.944ZM121.944 188.75H112.644V190.75H121.944V188.75ZM111.644 189.75V219H113.644V189.75H111.644ZM112.644 218H105.644V220H112.644V218ZM106.644 219V189.75H104.644V219H106.644ZM105.644 188.75H96.3441V190.75H105.644V188.75ZM97.3441 189.75V184.1H95.3441V189.75H97.3441ZM96.3441 185.1H121.944V183.1H96.3441V185.1ZM158.766 201.1L158.465 200.146L158.582 202.083L158.766 201.1ZM163.616 204.05L164.4 203.429L163.616 204.05ZM164.116 214.5L163.278 213.954L163.274 213.959L164.116 214.5ZM160.166 217.8L160.585 218.708L160.166 217.8ZM138.966 219H137.966V220H138.966V219ZM138.966 184.1V183.1H137.966V184.1H138.966ZM159.466 185.25L159.055 186.162L159.061 186.165L159.466 185.25ZM163.366 188.45L162.521 188.986L162.526 188.993L162.53 189L163.366 188.45ZM163.066 198.2L162.287 197.573L162.282 197.579L162.277 197.585L163.066 198.2ZM145.966 198.5H144.966V199.5H145.966V198.5ZM156.216 197.4L156.847 198.175L156.856 198.168L156.864 198.161L156.216 197.4ZM156.216 190.9L156.864 190.139L156.216 190.9ZM145.966 189.75V188.75H144.966V189.75H145.966ZM156.966 212.1L156.328 211.33L156.321 211.335L156.315 211.341L156.966 212.1ZM156.916 205.2L156.261 205.956L156.268 205.962L156.275 205.968L156.916 205.2ZM145.966 203.9V202.9H144.966V203.9H145.966ZM145.966 213.3H144.966V214.3H145.966V213.3ZM158.582 202.083C160.306 202.404 161.712 203.256 162.832 204.671L164.4 203.429C162.986 201.644 161.158 200.529 158.949 200.117L158.582 202.083ZM162.832 204.671C163.956 206.092 164.516 207.706 164.516 209.55H166.516C166.516 207.261 165.808 205.208 164.4 203.429L162.832 204.671ZM164.516 209.55C164.516 211.241 164.096 212.698 163.278 213.954L164.954 215.046C166.002 213.435 166.516 211.592 166.516 209.55H164.516ZM163.274 213.959C162.492 215.177 161.333 216.16 159.747 216.892L160.585 218.708C162.465 217.84 163.939 216.623 164.957 215.041L163.274 213.959ZM159.747 216.892C158.172 217.619 156.271 218 154.016 218V220C156.493 220 158.692 219.581 160.585 218.708L159.747 216.892ZM154.016 218H138.966V220H154.016V218ZM139.966 219V184.1H137.966V219H139.966ZM138.966 185.1H153.366V183.1H138.966V185.1ZM153.366 185.1C155.627 185.1 157.514 185.467 159.055 186.162L159.877 184.338C158.018 183.5 155.837 183.1 153.366 183.1V185.1ZM159.061 186.165C160.645 186.865 161.778 187.813 162.521 188.986L164.21 187.914C163.22 186.354 161.753 185.168 159.87 184.335L159.061 186.165ZM162.53 189C163.316 190.194 163.716 191.55 163.716 193.1H165.716C165.716 191.183 165.215 189.44 164.201 187.9L162.53 189ZM163.716 193.1C163.716 194.943 163.221 196.412 162.287 197.573L163.845 198.827C165.11 197.255 165.716 195.323 165.716 193.1H163.716ZM162.277 197.585C161.346 198.778 160.09 199.635 158.465 200.146L159.066 202.054C161.041 201.432 162.652 200.356 163.854 198.815L162.277 197.585ZM145.966 199.5H152.366V197.5H145.966V199.5ZM152.366 199.5C154.165 199.5 155.705 199.106 156.847 198.175L155.584 196.625C154.926 197.161 153.9 197.5 152.366 197.5V199.5ZM156.864 198.161C158.029 197.169 158.566 195.783 158.566 194.15H156.566C156.566 195.317 156.202 196.098 155.567 196.639L156.864 198.161ZM158.566 194.15C158.566 192.517 158.029 191.131 156.864 190.139L155.567 191.661C156.202 192.202 156.566 192.983 156.566 194.15H158.566ZM156.864 190.139C155.721 189.165 154.174 188.75 152.366 188.75V190.75C153.891 190.75 154.91 191.101 155.567 191.661L156.864 190.139ZM152.366 188.75H145.966V190.75H152.366V188.75ZM144.966 189.75V198.5H146.966V189.75H144.966ZM153.016 214.3C154.863 214.3 156.443 213.865 157.616 212.859L156.315 211.341C155.622 211.935 154.568 212.3 153.016 212.3V214.3ZM157.603 212.87C158.839 211.847 159.416 210.409 159.416 208.7H157.416C157.416 209.925 157.025 210.753 156.328 211.33L157.603 212.87ZM159.416 208.7C159.416 206.954 158.82 205.485 157.556 204.432L156.275 205.968C157.011 206.581 157.416 207.446 157.416 208.7H159.416ZM157.571 204.444C156.342 203.379 154.736 202.9 152.866 202.9V204.9C154.395 204.9 155.489 205.287 156.261 205.956L157.571 204.444ZM152.866 202.9H145.966V204.9H152.866V202.9ZM144.966 203.9V213.3H146.966V203.9H144.966ZM145.966 214.3H153.016V212.3H145.966V214.3ZM178.095 195.6H177.095V199.142L178.947 196.123L178.095 195.6ZM181.595 192.15L181.1 191.281L181.092 191.285L181.595 192.15ZM186.595 190.9H187.595V189.9H186.595V190.9ZM186.595 198.25V199.25H187.595V198.25H186.595ZM179.745 199.8L179.071 199.061L179.065 199.066L179.06 199.071L179.745 199.8ZM178.095 219V220H179.095V219H178.095ZM171.095 219H170.095V220H171.095V219ZM171.095 191.3V190.3H170.095V191.3H171.095ZM178.095 191.3H179.095V190.3H178.095V191.3ZM178.947 196.123C179.764 194.792 180.812 193.761 182.097 193.015L181.092 191.285C179.51 192.205 178.225 193.475 177.242 195.077L178.947 196.123ZM182.089 193.019C183.389 192.281 184.882 191.9 186.595 191.9V189.9C184.574 189.9 182.733 190.353 181.101 191.281L182.089 193.019ZM185.595 190.9V198.25H187.595V190.9H185.595ZM186.595 197.25H184.745V199.25H186.595V197.25ZM184.745 197.25C182.403 197.25 180.455 197.799 179.071 199.061L180.418 200.539C181.301 199.734 182.686 199.25 184.745 199.25V197.25ZM179.06 199.071C177.656 200.39 177.095 202.54 177.095 205.2H179.095C179.095 202.726 179.633 201.277 180.429 200.529L179.06 199.071ZM177.095 205.2V219H179.095V205.2H177.095ZM178.095 218H171.095V220H178.095V218ZM172.095 219V191.3H170.095V219H172.095ZM171.095 192.3H178.095V190.3H171.095V192.3ZM177.095 191.3V195.6H179.095V191.3H177.095ZM191.759 186.85L191.052 187.557L191.067 187.572L191.082 187.586L191.759 186.85ZM191.759 181L192.451 181.722L192.452 181.721L191.759 181ZM197.909 181L197.202 181.707L197.217 181.722L197.232 181.736L197.909 181ZM197.909 186.85L198.601 187.572L198.602 187.571L197.909 186.85ZM198.309 191.3H199.309V190.3H198.309V191.3ZM198.309 219V220H199.309V219H198.309ZM191.309 219H190.309V220H191.309V219ZM191.309 191.3V190.3H190.309V191.3H191.309ZM194.859 187C193.853 187 193.068 186.695 192.436 186.114L191.082 187.586C192.117 188.538 193.4 189 194.859 189V187ZM192.466 186.143C191.86 185.537 191.559 184.811 191.559 183.9H189.559C189.559 185.323 190.058 186.563 191.052 187.557L192.466 186.143ZM191.559 183.9C191.559 182.99 191.859 182.289 192.451 181.722L191.067 180.278C190.059 181.244 189.559 182.477 189.559 183.9H191.559ZM192.452 181.721C193.086 181.113 193.865 180.8 194.859 180.8V178.8C193.387 178.8 192.1 179.287 191.067 180.279L192.452 181.721ZM194.859 180.8C195.854 180.8 196.608 181.112 197.202 181.707L198.616 180.293C197.611 179.288 196.332 178.8 194.859 178.8V180.8ZM197.232 181.736C197.853 182.307 198.159 183.003 198.159 183.9H200.159C200.159 182.463 199.633 181.226 198.586 180.264L197.232 181.736ZM198.159 183.9C198.159 184.797 197.852 185.519 197.217 186.129L198.602 187.571C199.634 186.581 200.159 185.336 200.159 183.9H198.159ZM197.217 186.128C196.625 186.695 195.867 187 194.859 187V189C196.319 189 197.593 188.538 198.601 187.572L197.217 186.128ZM197.309 191.3V219H199.309V191.3H197.309ZM198.309 218H191.309V220H198.309V218ZM192.309 219V191.3H190.309V219H192.309ZM191.309 192.3H198.309V190.3H191.309V192.3ZM205.075 197.6L204.189 197.136L204.184 197.147L205.075 197.6ZM209.675 192.6L210.192 193.456L209.675 192.6ZM221.275 192.05L220.836 192.948L220.843 192.952L220.85 192.955L221.275 192.05ZM225.175 195.15L224.373 195.747L226.175 198.171V195.15H225.175ZM225.175 182V181H224.175V182H225.175ZM232.275 182H233.275V181H232.275V182ZM232.275 219V220H233.275V219H232.275ZM225.175 219H224.175V220H225.175V219ZM225.175 214.9H226.175V211.456L224.331 214.364L225.175 214.9ZM221.525 218.2L221.056 217.317L221.525 218.2ZM209.675 217.65L210.203 216.8L209.675 217.65ZM205.075 212.6L204.181 213.047L204.185 213.055L204.189 213.063L205.075 212.6ZM224.225 200.8L223.346 201.276L223.351 201.286L224.225 200.8ZM221.525 198L221.018 198.862L221.028 198.868L221.038 198.873L221.525 198ZM214.275 197.95L213.776 197.083V197.083L214.275 197.95ZM211.575 200.75L210.706 200.256L210.701 200.264L211.575 200.75ZM211.575 209.45L210.69 209.916L210.698 209.93L210.706 209.944L211.575 209.45ZM214.275 212.3L213.757 213.155L213.768 213.162L214.275 212.3ZM221.525 212.35L222.013 213.223L222.023 213.218L222.032 213.212L221.525 212.35ZM224.225 209.55L225.1 210.036L225.105 210.026L224.225 209.55ZM204.425 205.05C204.425 202.383 204.948 200.059 205.967 198.053L204.184 197.147C203.002 199.474 202.425 202.117 202.425 205.05H204.425ZM205.961 198.063C207.017 196.045 208.428 194.52 210.192 193.456L209.159 191.744C207.056 193.013 205.4 194.822 204.189 197.137L205.961 198.063ZM210.192 193.456C211.962 192.388 213.932 191.85 216.125 191.85V189.85C213.586 189.85 211.256 190.478 209.159 191.744L210.192 193.456ZM216.125 191.85C217.771 191.85 219.338 192.214 220.836 192.948L221.715 191.152C219.946 190.286 218.079 189.85 216.125 189.85V191.85ZM220.85 192.955C222.352 193.66 223.516 194.594 224.373 195.747L225.978 194.553C224.902 193.106 223.466 191.973 221.7 191.145L220.85 192.955ZM226.175 195.15V182H224.175V195.15H226.175ZM225.175 183H232.275V181H225.175V183ZM231.275 182V219H233.275V182H231.275ZM232.275 218H225.175V220H232.275V218ZM226.175 219V214.9H224.175V219H226.175ZM224.331 214.364C223.566 215.571 222.485 216.557 221.056 217.317L221.995 219.083C223.699 218.176 225.052 216.962 226.02 215.436L224.331 214.364ZM221.056 217.317C219.656 218.062 218.005 218.45 216.075 218.45V220.45C218.279 220.45 220.262 220.005 221.995 219.083L221.056 217.317ZM216.075 218.45C213.923 218.45 211.974 217.899 210.203 216.8L209.148 218.5C211.244 219.801 213.561 220.45 216.075 220.45V218.45ZM210.203 216.8C208.433 215.702 207.018 214.157 205.961 212.137L204.189 213.063C205.399 215.376 207.051 217.198 209.148 218.5L210.203 216.8ZM205.97 212.153C204.949 210.111 204.425 207.752 204.425 205.05H202.425C202.425 208.015 203.002 210.689 204.181 213.047L205.97 212.153ZM226.225 205.15C226.225 203.32 225.866 201.694 225.1 200.314L223.351 201.286C223.918 202.306 224.225 203.58 224.225 205.15H226.225ZM225.105 200.324C224.356 198.938 223.326 197.86 222.013 197.127L221.038 198.873C221.992 199.406 222.762 200.195 223.346 201.276L225.105 200.324ZM222.032 197.138C220.747 196.382 219.356 196 217.875 196V198C218.995 198 220.037 198.285 221.018 198.862L222.032 197.138ZM217.875 196C216.405 196 215.032 196.36 213.776 197.083L214.774 198.817C215.719 198.273 216.746 198 217.875 198V196ZM213.776 197.083C212.504 197.816 211.483 198.887 210.706 200.256L212.445 201.244C213.068 200.147 213.847 199.351 214.774 198.817L213.776 197.083ZM210.701 200.264C209.936 201.642 209.575 203.25 209.575 205.05H211.575C211.575 203.517 211.881 202.258 212.45 201.236L210.701 200.264ZM209.575 205.05C209.575 206.852 209.937 208.484 210.69 209.916L212.46 208.984C211.881 207.883 211.575 206.581 211.575 205.05H209.575ZM210.706 209.944C211.481 211.31 212.496 212.391 213.757 213.155L214.794 211.445C213.854 210.876 213.07 210.057 212.445 208.956L210.706 209.944ZM213.768 213.162C215.049 213.915 216.423 214.3 217.875 214.3V212.3C216.794 212.3 215.768 212.018 214.782 211.438L213.768 213.162ZM217.875 214.3C219.346 214.3 220.731 213.94 222.013 213.223L221.038 211.477C220.054 212.027 219.005 212.3 217.875 212.3V214.3ZM222.032 213.212C223.326 212.451 224.35 211.384 225.1 210.036L223.351 209.064C222.767 210.116 221.991 210.916 221.018 211.488L222.032 213.212ZM225.105 210.026C225.866 208.618 226.225 206.981 226.225 205.15H224.225C224.225 206.719 223.918 208.015 223.346 209.074L225.105 210.026ZM255.412 192.1L254.942 192.983L254.95 192.987L254.957 192.991L255.412 192.1ZM259.112 195.25L258.29 195.819L260.112 198.451V195.25H259.112ZM259.112 191.3V190.3H258.112V191.3H259.112ZM266.162 191.3H267.162V190.3H266.162V191.3ZM264.612 226.05L263.724 225.591L263.721 225.597L264.612 226.05ZM259.962 230.85L259.47 229.979L259.46 229.985L259.962 230.85ZM242.762 229.9L242.171 230.706L242.176 230.71L242.762 229.9ZM238.512 222.4V221.4H237.401L237.518 222.505L238.512 222.4ZM245.462 222.4L246.423 222.122L246.214 221.4H245.462V222.4ZM247.812 225.4L248.34 224.551L248.334 224.547L247.812 225.4ZM257.212 224.7L256.524 223.974L256.514 223.984L257.212 224.7ZM259.112 214.9H260.112V211.699L258.29 214.331L259.112 214.9ZM255.362 218.15L254.886 217.271L254.878 217.275L255.362 218.15ZM243.562 217.65L244.089 216.8L243.562 217.65ZM238.962 212.6L238.068 213.047L238.072 213.055L238.076 213.063L238.962 212.6ZM238.962 197.6L238.076 197.136L238.07 197.147L238.962 197.6ZM243.512 192.6L242.995 191.744L242.989 191.748L243.512 192.6ZM258.112 200.8L257.232 201.276L257.238 201.286L258.112 200.8ZM255.412 198L254.905 198.862L254.915 198.868L254.924 198.873L255.412 198ZM248.162 197.95L247.663 197.083V197.083L248.162 197.95ZM245.462 200.75L244.592 200.256L244.588 200.264L245.462 200.75ZM245.462 209.45L244.577 209.916L244.585 209.93L244.592 209.944L245.462 209.45ZM248.162 212.3L247.644 213.155L247.655 213.162L248.162 212.3ZM255.412 212.35L255.9 213.223L255.91 213.218L255.919 213.212L255.412 212.35ZM258.112 209.55L258.986 210.036L258.992 210.026L258.112 209.55ZM249.962 191.85C251.892 191.85 253.543 192.238 254.942 192.983L255.882 191.217C254.148 190.295 252.165 189.85 249.962 189.85V191.85ZM254.957 192.991C256.394 193.724 257.494 194.67 258.29 195.819L259.934 194.681C258.93 193.23 257.564 192.076 255.867 191.209L254.957 192.991ZM260.112 195.25V191.3H258.112V195.25H260.112ZM259.112 192.3H266.162V190.3H259.112V192.3ZM265.162 191.3V219.2H267.162V191.3H265.162ZM265.162 219.2C265.162 221.629 264.674 223.752 263.724 225.591L265.501 226.509C266.617 224.348 267.162 221.904 267.162 219.2H265.162ZM263.721 225.597C262.78 227.447 261.373 228.905 259.471 229.979L260.454 231.721C262.685 230.461 264.377 228.719 265.504 226.503L263.721 225.597ZM259.46 229.985C257.577 231.079 255.259 231.65 252.462 231.65V233.65C255.532 233.65 258.214 233.021 260.464 231.715L259.46 229.985ZM252.462 231.65C248.685 231.65 245.672 230.771 243.348 229.09L242.176 230.71C244.919 232.696 248.373 233.65 252.462 233.65V231.65ZM243.353 229.094C241.088 227.432 239.811 225.19 239.507 222.295L237.518 222.505C237.88 225.943 239.437 228.701 242.171 230.706L243.353 229.094ZM238.512 223.4H245.462V221.4H238.512V223.4ZM244.502 222.678C244.943 224.201 245.893 225.399 247.291 226.253L248.334 224.547C247.331 223.934 246.715 223.132 246.423 222.122L244.502 222.678ZM247.284 226.249C248.704 227.132 250.379 227.55 252.262 227.55V225.55C250.679 225.55 249.387 225.201 248.34 224.551L247.284 226.249ZM252.262 227.55C254.514 227.55 256.428 226.859 257.91 225.416L256.514 223.984C255.463 225.008 254.077 225.55 252.262 225.55V227.55ZM257.9 225.426C259.437 223.97 260.112 221.825 260.112 219.2H258.112C258.112 221.508 257.521 223.03 256.524 223.974L257.9 225.426ZM260.112 219.2V214.9H258.112V219.2H260.112ZM258.29 214.331C257.492 215.483 256.369 216.467 254.886 217.271L255.838 219.029C257.556 218.099 258.932 216.917 259.934 215.469L258.29 214.331ZM254.878 217.275C253.479 218.049 251.849 218.45 249.962 218.45V220.45C252.141 220.45 254.112 219.984 255.846 219.025L254.878 217.275ZM249.962 218.45C247.81 218.45 245.86 217.899 244.089 216.8L243.035 218.5C245.131 219.801 247.447 220.45 249.962 220.45V218.45ZM244.089 216.8C242.319 215.702 240.905 214.157 239.848 212.137L238.076 213.063C239.286 215.376 240.938 217.198 243.035 218.5L244.089 216.8ZM239.857 212.153C238.836 210.111 238.312 207.752 238.312 205.05H236.312C236.312 208.015 236.888 210.689 238.068 213.047L239.857 212.153ZM238.312 205.05C238.312 202.383 238.835 200.059 239.854 198.053L238.07 197.147C236.889 199.474 236.312 202.117 236.312 205.05H238.312ZM239.848 198.063C240.906 196.041 242.304 194.515 244.035 193.452L242.989 191.748C240.92 193.018 239.285 194.826 238.076 197.137L239.848 198.063ZM244.029 193.456C245.799 192.388 247.768 191.85 249.962 191.85V189.85C247.422 189.85 245.092 190.478 242.995 191.744L244.029 193.456ZM260.112 205.15C260.112 203.32 259.753 201.694 258.986 200.314L257.238 201.286C257.805 202.306 258.112 203.58 258.112 205.15H260.112ZM258.992 200.324C258.242 198.938 257.212 197.86 255.9 197.127L254.924 198.873C255.879 199.406 256.648 200.195 257.232 201.276L258.992 200.324ZM255.919 197.138C254.634 196.382 253.243 196 251.762 196V198C252.882 198 253.924 198.285 254.905 198.862L255.919 197.138ZM251.762 196C250.291 196 248.919 196.36 247.663 197.083L248.661 198.817C249.605 198.273 250.633 198 251.762 198V196ZM247.663 197.083C246.391 197.816 245.37 198.887 244.592 200.256L246.332 201.244C246.954 200.147 247.733 199.351 248.661 198.817L247.663 197.083ZM244.588 200.264C243.823 201.642 243.462 203.25 243.462 205.05H245.462C245.462 203.517 245.768 202.258 246.336 201.236L244.588 200.264ZM243.462 205.05C243.462 206.852 243.823 208.484 244.577 209.916L246.347 208.984C245.767 207.883 245.462 206.581 245.462 205.05H243.462ZM244.592 209.944C245.368 211.31 246.383 212.391 247.644 213.155L248.68 211.445C247.741 210.876 246.956 210.057 246.332 208.956L244.592 209.944ZM247.655 213.162C248.936 213.915 250.31 214.3 251.762 214.3V212.3C250.681 212.3 249.655 212.018 248.669 211.438L247.655 213.162ZM251.762 214.3C253.233 214.3 254.617 213.94 255.9 213.223L254.924 211.477C253.94 212.027 252.892 212.3 251.762 212.3V214.3ZM255.919 213.212C257.213 212.451 258.237 211.384 258.986 210.036L257.238 209.064C256.654 210.116 255.878 210.916 254.905 211.488L255.919 213.212ZM258.992 210.026C259.753 208.618 260.112 206.981 260.112 205.15H258.112C258.112 206.719 257.805 208.015 257.232 209.074L258.992 210.026ZM298.549 207.25V208.25H299.396L299.535 207.414L298.549 207.25ZM278.299 207.25V206.25H277.212L277.302 207.333L278.299 207.25ZM280.399 211.95L279.722 212.686L280.399 211.95ZM290.499 210.3V209.3H289.877L289.602 209.858L290.499 210.3ZM298.049 210.3L299.007 210.587L299.393 209.3H298.049V210.3ZM293.449 216.9L294.049 217.7L294.056 217.694L293.449 216.9ZM277.899 217.7L277.403 218.568L277.411 218.573L277.419 218.577L277.899 217.7ZM272.949 212.65L272.068 213.124L272.074 213.134L272.949 212.65ZM272.949 197.6L272.068 197.126L272.949 197.6ZM277.849 192.6L278.334 193.474L277.849 192.6ZM292.149 192.55L291.668 193.427L291.674 193.43L292.149 192.55ZM296.999 197.4L296.119 197.875L296.123 197.883L296.128 197.892L296.999 197.4ZM291.499 202.55V203.55H292.518L292.499 202.531L291.499 202.55ZM289.549 198.25L288.893 199.005L288.899 199.01L288.905 199.015L289.549 198.25ZM280.499 198.2L281.162 198.949L281.163 198.947L280.499 198.2ZM278.349 202.55L277.359 202.409L277.196 203.55H278.349V202.55ZM297.749 204.55C297.749 205.507 297.685 206.351 297.562 207.086L299.535 207.414C299.679 206.549 299.749 205.593 299.749 204.55H297.749ZM298.549 206.25H278.299V208.25H298.549V206.25ZM277.302 207.333C277.485 209.531 278.269 211.351 279.722 212.686L281.075 211.214C280.062 210.283 279.446 208.969 279.295 207.167L277.302 207.333ZM279.722 212.686C281.155 214.003 282.919 214.65 284.949 214.65V212.65C283.379 212.65 282.11 212.164 281.075 211.214L279.722 212.686ZM284.949 214.65C286.394 214.65 287.693 214.339 288.803 213.669C289.916 212.997 290.775 212.003 291.396 210.742L289.602 209.858C289.123 210.83 288.507 211.511 287.77 211.956C287.03 212.403 286.104 212.65 284.949 212.65V214.65ZM290.499 211.3H298.049V209.3H290.499V211.3ZM297.091 210.013C296.353 212.472 294.945 214.497 292.841 216.106L294.056 217.694C296.486 215.837 298.145 213.461 299.007 210.587L297.091 210.013ZM292.849 216.1C290.783 217.65 288.219 218.45 285.099 218.45V220.45C288.578 220.45 291.582 219.55 294.049 217.7L292.849 216.1ZM285.099 218.45C282.583 218.45 280.351 217.901 278.379 216.823L277.419 218.577C279.713 219.832 282.281 220.45 285.099 220.45V218.45ZM278.395 216.832C276.458 215.725 274.937 214.176 273.824 212.166L272.074 213.134C273.361 215.457 275.14 217.275 277.403 218.568L278.395 216.832ZM273.829 212.176C272.752 210.176 272.199 207.843 272.199 205.15H270.199C270.199 208.124 270.812 210.791 272.068 213.124L273.829 212.176ZM272.199 205.15C272.199 202.421 272.753 200.073 273.829 198.074L272.068 197.126C270.811 199.461 270.199 202.145 270.199 205.15H272.199ZM273.829 198.074C274.908 196.071 276.406 194.546 278.334 193.474L277.363 191.726C275.092 192.988 273.323 194.795 272.068 197.126L273.829 198.074ZM278.334 193.474C280.266 192.401 282.512 191.85 285.099 191.85V189.85C282.219 189.85 279.631 190.466 277.363 191.726L278.334 193.474ZM285.099 191.85C287.584 191.85 289.765 192.383 291.668 193.427L292.63 191.673C290.399 190.45 287.88 189.85 285.099 189.85V191.85ZM291.674 193.43C293.602 194.471 295.078 195.947 296.119 197.875L297.879 196.925C296.653 194.653 294.895 192.896 292.624 191.67L291.674 193.43ZM296.128 197.892C297.199 199.789 297.749 201.998 297.749 204.55H299.749C299.749 201.702 299.132 199.145 297.87 196.908L296.128 197.892ZM292.499 202.531C292.461 200.471 291.701 198.755 290.193 197.485L288.905 199.015C289.93 199.878 290.47 201.029 290.499 202.569L292.499 202.531ZM290.205 197.495C288.739 196.222 286.949 195.6 284.899 195.6V197.6C286.515 197.6 287.826 198.078 288.893 199.005L290.205 197.495ZM284.899 195.6C282.942 195.6 281.233 196.21 279.834 197.453L281.163 198.947C282.165 198.057 283.389 197.6 284.899 197.6V195.6ZM279.836 197.451C278.456 198.673 277.652 200.359 277.359 202.409L279.339 202.691C279.579 201.008 280.208 199.793 281.162 198.949L279.836 197.451ZM278.349 203.55H291.499V201.55H278.349V203.55Z" fill="#FF6500" mask="url(#path-1-outside-1_392_919)"/>
<path d="M80.3075 215.091L80.2659 214.802L79.9926 214.696C79.2377 214.405 78.5841 214.006 77.9408 213.525L77.7174 213.357L77.4577 213.46L74.2699 214.718C74.2372 214.728 74.1965 214.728 74.1595 214.716C74.1229 214.704 74.104 214.685 74.0945 214.668L74.0947 214.668L74.0883 214.657L71.5187 210.332L71.5187 210.332L71.5156 210.327C71.5014 210.304 71.4972 210.278 71.5018 210.254C71.5065 210.229 71.5207 210.204 71.5459 210.185L71.5469 210.185L74.2578 208.11L74.4725 207.945L74.4525 207.676L74.3653 206.499L74.4526 205.286L74.4722 205.014L74.2543 204.85L71.5459 202.815C71.5457 202.815 71.5454 202.814 71.5452 202.814C71.5205 202.795 71.5065 202.77 71.5018 202.746C71.4972 202.722 71.5014 202.696 71.5156 202.673L71.5156 202.673L71.5187 202.668L74.0883 198.343L74.0884 198.343L74.0945 198.332C74.1066 198.311 74.1293 198.29 74.1642 198.278C74.2002 198.265 74.2342 198.268 74.2572 198.277L74.2602 198.278L77.4593 199.528L77.7146 199.628L77.936 199.466C78.5824 198.995 79.2372 198.596 79.9926 198.304L80.2659 198.198L80.3075 197.909L80.7815 194.606C80.7919 194.557 80.844 194.5 80.9303 194.5H86.0695C86.1558 194.5 86.2079 194.557 86.2183 194.606L86.6923 197.909L86.7339 198.198L87.0071 198.304C87.7625 198.596 88.4174 198.995 89.0638 199.466L89.2852 199.628L89.5405 199.528L92.7396 198.278L92.7425 198.277C92.7656 198.268 92.7995 198.265 92.8356 198.278C92.8705 198.29 92.8932 198.311 92.9052 198.332L92.9051 198.332L92.9115 198.343L95.4811 202.668L95.481 202.668L95.4836 202.672C95.5002 202.699 95.5025 202.724 95.498 202.746C95.4933 202.769 95.4794 202.795 95.4535 202.815C95.453 202.815 95.4526 202.816 95.4522 202.816L92.7454 204.85L92.5276 205.014L92.5471 205.286L92.6345 206.5L92.5471 207.714L92.5276 207.986L92.7454 208.15L95.4522 210.184C95.4526 210.184 95.453 210.185 95.4535 210.185C95.4794 210.205 95.4933 210.231 95.498 210.254C95.5025 210.276 95.5002 210.301 95.4836 210.328L95.4811 210.332L92.9115 214.657L92.9114 214.657L92.9052 214.668C92.8932 214.689 92.8705 214.71 92.8356 214.722C92.7995 214.735 92.7656 214.732 92.7425 214.723L92.7396 214.722L89.5405 213.472L89.2852 213.372L89.0638 213.534C88.4174 214.005 87.7625 214.404 87.0071 214.696L86.7339 214.802L86.6923 215.091L86.2183 218.394C86.2079 218.443 86.1558 218.5 86.0695 218.5H80.9303C80.844 218.5 80.7919 218.443 80.7815 218.394L80.3075 215.091ZM82.5363 196H82.1039L82.0415 196.428L81.6156 199.351C80.2316 199.698 78.9969 200.417 78.0405 201.392L75.2652 200.226L74.8637 200.058L74.6416 200.432L73.678 202.057L73.4439 202.452L73.8173 202.719L76.2308 204.444C75.8344 205.787 75.8345 207.213 76.2309 208.556L73.8042 210.293L73.4312 210.56L73.6652 210.955L74.6288 212.58L74.8502 212.953L75.251 212.787L78.0543 211.619C79.0064 212.582 80.2287 213.299 81.6028 213.638L82.0286 216.572L82.0908 217H82.5234H84.4763H84.9087L84.9711 216.572L85.3971 213.648C86.7702 213.3 87.9927 212.583 88.9455 211.619L91.7487 212.787L92.1495 212.953L92.371 212.58L93.3346 210.955L93.5693 210.559L93.1943 210.293L90.769 208.567C91.1654 207.22 91.1653 205.791 90.7687 204.444L93.1824 202.719L93.5559 202.452L93.3217 202.057L92.3582 200.432L92.136 200.058L91.7345 200.226L88.9594 201.392C87.9871 200.399 86.7471 199.696 85.384 199.361L84.9583 196.428L84.8961 196H84.4635H82.5363ZM83.4999 202C84.7346 202 85.9161 202.477 86.7851 203.323C87.6537 204.168 88.139 205.311 88.139 206.5C88.139 207.689 87.6537 208.832 86.7851 209.677C85.9161 210.523 84.7346 211 83.4999 211C82.2651 211 81.0836 210.523 80.2146 209.677C79.3461 208.832 78.8607 207.689 78.8607 206.5C78.8607 205.311 79.3461 204.168 80.2146 203.323C81.0836 202.477 82.2651 202 83.4999 202ZM83.4999 203.5C82.6901 203.5 81.9109 203.813 81.3342 204.374C80.7571 204.935 80.4303 205.7 80.4303 206.5C80.4303 207.3 80.7571 208.065 81.3342 208.626C81.9109 209.187 82.6901 209.5 83.4999 209.5C84.3096 209.5 85.0889 209.187 85.6655 208.626C86.2426 208.065 86.5695 207.3 86.5695 206.5C86.5695 205.7 86.2426 204.935 85.6655 204.374C85.0889 203.813 84.3096 203.5 83.4999 203.5Z" fill="#FF6500" stroke="#FF6500"/>
<line y1="-5" x2="121.589" y2="-5" transform="matrix(-0.00656269 -0.999978 0.999978 -0.00659496 74.7402 157.133)" stroke="#FF6500" stroke-width="10"/>
<line y1="-5" x2="121.587" y2="-5" transform="matrix(-0.0033141 -0.999994 0.999994 -0.0033304 252.039 157.133)" stroke="#FF6500" stroke-width="10"/>
<path d="M104.962 157.156L105.45 147.523L105.744 35.544" stroke="#FF6500" stroke-width="10"/>
<path d="M282.283 157.157L282.661 147.523L283.066 35.5468" stroke="#FF6500" stroke-width="10"/>
<path d="M88.0371 157.156L88.0371 15.9557" stroke="#FF6500" stroke-width="10"/>
<path d="M265.336 157.156L265.336 15.9557" stroke="#FF6500" stroke-width="10"/>
<circle cx="70" cy="31" r="6.5" fill="white" stroke="#FF6500" stroke-width="5"/>
<circle cx="246" cy="30" r="6.5" fill="white" stroke="#FF6500" stroke-width="5"/>
<circle cx="9" cy="9" r="6.5" transform="matrix(-1 0 0 1 115 21)" fill="white" stroke="#FF6500" stroke-width="5"/>
<path d="M277.5 30C277.5 33.7264 280.319 36.5 283.5 36.5C286.681 36.5 289.5 33.7264 289.5 30C289.5 26.2736 286.681 23.5 283.5 23.5C280.319 23.5 277.5 26.2736 277.5 30Z" fill="white" stroke="#FF6500" stroke-width="5"/>
<circle cx="9" cy="9" r="6.5" transform="matrix(-1 0 0 1 97 0)" fill="white" stroke="#FF6500" stroke-width="5"/>
<circle cx="9" cy="9" r="6.5" transform="matrix(-1 0 0 1 274 0)" fill="white" stroke="#FF6500" stroke-width="5"/>
<rect x="1.5" y="132.5" width="69" height="9" fill="#FF6500" stroke="#FF6500"/>
<rect x="283.5" y="132.5" width="72" height="9" fill="#FF6500" stroke="#FF6500"/>
<rect x="107.5" y="128.5" width="141" height="10" fill="#FF6500" stroke="#FF6500"/>
<path d="M1 133C15.8595 132.667 50.4629 112.8 70 36" stroke="#FF6500" stroke-width="10"/>
<path d="M356 135C340.279 134.66 303.67 114.384 283 36" stroke="#FF6500" stroke-width="10"/>
<path d="M106 44C124.958 59.8471 180.098 82.033 249 44" stroke="#FF6500" stroke-width="12"/>
<path d="M106 143C175.253 133.238 179.951 134.106 249 143" stroke="#FF6500" stroke-width="13"/>
<rect x="62.5" y="154.5" width="51" height="9" fill="#FF6500" stroke="#FF6500"/>
<rect x="240.5" y="154.5" width="51" height="9" fill="#FF6500" stroke="#FF6500"/>
</svg>
