<svg width="802" height="1024" viewBox="0 0 802 1024" fill="none" xmlns="http://www.w3.org/2000/svg">
<g filter="url(#filter0_d_414_920)">
<circle cx="135" cy="533" r="650" fill="#1E3E62"/>
</g>
<path d="M548.149 616.677H340.992V496.799H548.149V616.677ZM342.256 615.413H546.885V498.063H342.256V615.413Z" fill="#E0E0E0"/>
<path d="M505.413 560.719H368.736V564.726H505.413V560.719Z" fill="#F0F0F0"/>
<path d="M514.829 575.66H368.736V580.033H514.829V575.66Z" fill="#F0F0F0"/>
<path d="M514.829 590.777H368.736V595.151H514.829V590.777Z" fill="#F0F0F0"/>
<path d="M416.503 539.017H368.736V549.419H416.503V539.017Z" fill="#F0F0F0"/>
<path d="M547.517 497.431H341.662V516.517H547.517V497.431Z" fill="#E0E0E0"/>
<path d="M531.678 513.661C531.413 513.408 534.067 510.21 537.594 506.519C541.121 502.828 544.217 500.035 544.47 500.275C544.723 500.515 542.081 503.726 538.555 507.429C535.028 511.133 531.931 513.914 531.678 513.661Z" fill="white"/>
<path d="M544.496 513.661C544.243 513.914 541.159 511.133 537.619 507.429C534.08 503.726 531.438 500.528 531.704 500.275C531.969 500.022 535.041 502.803 538.58 506.519C542.119 510.235 544.736 513.408 544.496 513.661Z" fill="white"/>
<path d="M293.238 260.039H87.3828V378.666H293.238V260.039Z" fill="#E6E6E6"/>
<path d="M251.147 323.34H114.47V327.347H251.147V323.34Z" fill="#F0F0F0"/>
<path d="M260.563 338.281H114.47V342.654H260.563V338.281Z" fill="#F0F0F0"/>
<path d="M260.563 353.398H114.47V357.772H260.563V353.398Z" fill="#F0F0F0"/>
<path d="M162.237 301.637H114.47V312.04H162.237V301.637Z" fill="#F0F0F0"/>
<path d="M293.238 260.039H87.3828V279.126H293.238V260.039Z" fill="#E0E0E0"/>
<path d="M276.705 276.181C276.439 275.94 279.094 272.73 282.62 269.039C286.147 265.348 289.244 262.555 289.497 262.807C289.749 263.06 287.108 266.258 283.581 269.949C280.054 273.64 276.958 276.408 276.705 276.181Z" fill="white"/>
<path d="M289.497 276.18C289.244 276.433 286.16 273.652 282.62 269.949C279.081 266.245 276.439 263.06 276.705 262.807C276.97 262.555 280.042 265.335 283.581 269.039C287.12 272.742 289.762 275.94 289.497 276.18Z" fill="white"/>
<path d="M215.274 480.405H8.15527V360.515H215.274V480.405ZM9.41927 479.141H214.01V361.779H9.41927V479.141Z" fill="#E0E0E0"/>
<path d="M172.551 424.448H35.875V428.455H172.551V424.448Z" fill="#F0F0F0"/>
<path d="M181.968 439.388H35.875V443.762H181.968V439.388Z" fill="#F0F0F0"/>
<path d="M181.968 454.506H35.875V458.879H181.968V454.506Z" fill="#F0F0F0"/>
<path d="M83.6416 402.745H35.875V413.147H83.6416V402.745Z" fill="#F0F0F0"/>
<path d="M214.642 361.146H8.78711V380.233H214.642V361.146Z" fill="#E0E0E0"/>
<path d="M454.309 507.872H211.242V725.482H454.309V507.872Z" fill="#E6E6E6"/>
<path d="M223.465 439.325H33.0562V637.154H223.465V439.325Z" fill="#F0F0F0"/>
<path d="M223.465 439.325H33.0562V460.876H223.465V439.325Z" fill="#E0E0E0"/>
<path d="M48.7805 449.879C48.7458 450.661 48.4824 451.415 48.023 452.048C47.5636 452.681 46.9283 453.166 46.1961 453.441C45.4639 453.716 44.6669 453.771 43.9041 453.597C43.1413 453.424 42.4463 453.03 41.9053 452.465C41.3642 451.9 41.001 451.188 40.8607 450.419C40.7204 449.649 40.8091 448.855 41.116 448.136C41.4228 447.416 41.9342 446.802 42.5866 446.371C43.2391 445.939 44.0039 445.709 44.7862 445.708C45.868 445.735 46.8953 446.188 47.6437 446.97C48.3922 447.751 48.8008 448.797 48.7805 449.879Z" fill="white"/>
<path d="M64.9972 449.879C64.965 450.665 64.7025 451.423 64.2426 452.06C63.7826 452.697 63.1454 453.185 62.4103 453.463C61.6752 453.741 60.8746 453.796 60.1081 453.623C59.3417 453.449 58.6432 453.054 58.0997 452.486C57.5562 451.919 57.1915 451.204 57.0512 450.43C56.9109 449.657 57.001 448.86 57.3105 448.137C57.6199 447.415 58.1349 446.799 58.7915 446.368C59.448 445.936 60.2171 445.706 61.003 445.708C62.0848 445.735 63.1121 446.188 63.8605 446.97C64.6089 447.751 65.0176 448.797 64.9972 449.879Z" fill="white"/>
<path d="M81.2145 449.879C81.1823 450.665 80.9198 451.423 80.4599 452.06C79.9999 452.697 79.3627 453.185 78.6276 453.463C77.8924 453.741 77.0918 453.796 76.3254 453.623C75.5589 453.449 74.8605 453.054 74.317 452.486C73.7734 451.919 73.4088 451.204 73.2685 450.43C73.1282 449.657 73.2183 448.86 73.5278 448.137C73.8372 447.415 74.3522 446.799 75.0088 446.368C75.6653 445.936 76.4344 445.706 77.2203 445.708C78.302 445.735 79.3294 446.188 80.0778 446.97C80.8262 447.751 81.2349 448.797 81.2145 449.879Z" fill="white"/>
<path d="M520.96 303.306H277.893V545.564H520.96V303.306Z" fill="#F0F0F0"/>
<path d="M520.96 303.306H277.893V331.683H520.96V303.306Z" fill="#E0E0E0"/>
<path d="M298.597 317.21C298.553 318.242 298.206 319.237 297.601 320.074C296.995 320.91 296.157 321.55 295.191 321.914C294.225 322.279 293.173 322.351 292.166 322.123C291.159 321.894 290.241 321.375 289.526 320.63C288.812 319.885 288.332 318.946 288.146 317.93C287.961 316.914 288.078 315.866 288.482 314.916C288.887 313.966 289.562 313.156 290.423 312.586C291.284 312.017 292.294 311.713 293.327 311.712C294.754 311.745 296.109 312.342 297.097 313.372C298.085 314.403 298.625 315.783 298.597 317.21Z" fill="white"/>
<path d="M318.404 313.494C319.105 314.255 319.566 315.205 319.731 316.226C319.895 317.248 319.755 318.295 319.329 319.237C318.902 320.18 318.208 320.976 317.332 321.526C316.456 322.077 315.438 322.358 314.404 322.334C313.37 322.309 312.365 321.982 311.516 321.391C310.667 320.8 310.011 319.972 309.629 319.011C309.246 318.05 309.156 316.997 309.368 315.985C309.58 314.972 310.085 314.044 310.82 313.317C311.85 312.336 313.227 311.805 314.649 311.838C316.07 311.871 317.421 312.466 318.404 313.494Z" fill="white"/>
<path d="M341.295 317.21C341.251 318.242 340.904 319.237 340.298 320.074C339.693 320.91 338.855 321.55 337.889 321.914C336.923 322.279 335.871 322.351 334.864 322.123C333.857 321.894 332.939 321.375 332.224 320.63C331.51 319.885 331.03 318.946 330.844 317.93C330.659 316.914 330.775 315.866 331.18 314.916C331.585 313.966 332.26 313.156 333.121 312.586C333.982 312.017 334.992 311.713 336.024 311.712C337.451 311.745 338.807 312.342 339.795 313.372C340.783 314.403 341.322 315.783 341.295 317.21Z" fill="white"/>
<path d="M468.454 789.756C468.454 789.933 380.682 790.085 272.445 790.085C164.209 790.085 76.3989 789.933 76.3989 789.756C76.3989 789.579 164.158 789.428 272.445 789.428C380.732 789.428 468.454 789.592 468.454 789.756Z" fill="#263238"/>
<path d="M382.931 635.017C363.403 621.379 358.979 596.061 359.75 573.296C359.876 569.504 359.459 565.485 361.266 562.161C363.074 558.836 367.296 556.548 370.696 558.141C373.515 559.468 374.741 562.755 376.321 565.472C378.429 569.092 381.518 572.041 385.232 573.979C387.646 575.243 390.642 576.001 393.031 574.687C396.317 572.879 396.696 568.367 396.671 564.575C396.671 557.522 396.629 550.477 396.545 543.441C396.318 539.662 396.702 535.872 397.682 532.216C398.858 528.627 401.474 525.302 405.051 524.291C408.629 523.28 413.09 525.365 413.899 529.056C414.039 530.62 414.077 532.19 414.013 533.758C414.114 535.338 414.847 537.07 416.326 537.55C417.805 538.031 419.347 536.931 420.485 535.819C424.378 532.027 427.032 527.085 429.497 522.205C431.962 517.326 434.376 512.308 437.915 508.15C441.455 503.991 446.346 500.692 451.819 500.376C457.293 500.06 462.993 503.422 464.358 508.731C465.723 514.04 462.627 519.463 459.302 523.773C454.286 530.171 448.373 535.812 441.745 540.521C440.452 541.227 439.419 542.331 438.8 543.668C437.979 546.196 440.368 548.724 442.858 549.521C445.676 550.456 448.735 550.165 451.706 550.519C454.676 550.873 457.836 552.162 458.961 554.943C460.503 558.811 457.267 562.856 454.095 565.51C447.724 570.819 440.49 574.996 432.708 577.859C429.927 578.871 427.007 579.768 424.757 581.715C422.507 583.661 421.167 587.061 422.52 589.728C423.872 592.395 427.348 593.242 430.268 592.699C433.188 592.155 435.779 590.588 438.56 589.539C443.755 587.58 450.454 587.934 453.728 592.421C454.742 593.966 455.384 595.726 455.604 597.562C455.823 599.398 455.614 601.259 454.992 603C453.727 606.465 451.78 609.642 449.266 612.341C440.987 622.233 430.231 629.748 418.096 634.12C406.05 638.291 394.889 639.429 382.919 635.043" fill="#FF6500"/>
<path d="M458.797 503.498C458.797 503.498 458.683 503.625 458.43 503.852L457.305 504.851C456.319 505.736 454.866 507.025 453.033 508.731C447.837 513.556 443.011 518.766 438.598 524.316C435.779 527.818 432.86 531.787 429.75 536.097C426.641 540.407 423.43 545.059 420.245 550.001C416.849 555.213 413.739 560.605 410.929 566.155C409.463 569.049 408.174 572.07 406.847 575.154L402.928 584.571C397.763 596.433 393.265 608.573 389.454 620.937C386.384 631.052 384.268 641.433 383.134 651.942C382.399 659.035 382.28 666.178 382.78 673.291C382.982 675.819 383.172 677.753 383.349 679.068C383.425 679.7 383.475 680.205 383.526 680.572V681.09C383.471 680.926 383.433 680.757 383.412 680.585C383.349 680.218 383.273 679.725 383.172 679.093C382.944 677.829 382.704 675.832 382.477 673.304C381.867 666.178 381.909 659.011 382.603 651.892C383.667 641.337 385.737 630.908 388.784 620.747C392.563 608.349 397.049 596.178 402.22 584.293L406.24 574.914C407.567 571.843 408.869 568.797 410.348 565.889C413.177 560.323 416.313 554.917 419.739 549.697C422.975 544.641 426.236 540.066 429.308 535.793C432.379 531.521 435.35 527.527 438.156 524.038C442.614 518.503 447.504 513.329 452.78 508.567C454.651 506.886 456.143 505.622 457.154 504.775L458.329 503.827C458.473 503.701 458.63 503.591 458.797 503.498Z" fill="#263238"/>
<path d="M410.512 565.864C410.334 565.343 410.211 564.805 410.145 564.259C409.943 563.21 409.716 561.731 409.45 559.809C408.907 556.017 408.351 550.822 407.756 545.071C407.162 539.32 406.492 534.112 405.936 530.358C405.646 528.488 405.393 526.983 405.216 525.934C405.078 525.397 405.006 524.846 405.001 524.291C405.219 524.797 405.376 525.328 405.469 525.871C405.747 526.908 406.063 528.399 406.417 530.282C407.137 534.074 407.845 539.232 408.439 544.995C409.033 550.759 409.539 555.815 409.931 559.746C410.12 561.516 410.284 563.02 410.411 564.221C410.509 564.763 410.543 565.314 410.512 565.864Z" fill="#263238"/>
<path d="M459.151 556.789C458.536 556.922 457.909 556.999 457.28 557.016C456.016 557.13 454.221 557.282 451.996 557.534C447.547 558.015 441.429 558.899 434.718 560.163C428.006 561.427 421.976 562.856 417.641 563.955C415.48 564.512 413.735 565.017 412.585 565.358C411.971 565.577 411.335 565.729 410.689 565.813C411.273 565.52 411.882 565.279 412.509 565.093C413.697 564.676 415.416 564.094 417.565 563.475C421.875 562.211 427.905 560.707 434.642 559.418C440.349 558.326 446.107 557.525 451.895 557.016C454.133 556.826 455.94 556.751 457.204 556.725C457.853 556.681 458.506 556.702 459.151 556.789Z" fill="#263238"/>
<path d="M389.403 619.862C389.268 619.679 389.158 619.479 389.075 619.268L388.24 617.511C387.52 615.982 386.547 613.719 385.384 610.951C383.033 605.389 380.037 597.603 376.852 588.957C373.666 580.312 370.734 572.525 368.509 566.901C367.422 564.17 366.525 561.933 365.855 560.265L365.147 558.457C365.049 558.249 364.981 558.027 364.945 557.8C365.08 557.983 365.19 558.182 365.273 558.394L366.108 560.151C366.816 561.68 367.801 563.943 368.964 566.711C371.315 572.273 374.311 580.059 377.496 588.705C380.682 597.35 383.614 605.137 385.839 610.761C386.926 613.492 387.823 615.729 388.48 617.397C388.771 618.118 389.011 618.661 389.201 619.205C389.299 619.413 389.367 619.635 389.403 619.862Z" fill="#263238"/>
<path d="M453.968 599.044C453.766 599.16 453.549 599.249 453.324 599.309L451.453 599.941L444.539 602.179C438.699 604.075 430.635 606.78 421.787 609.763C412.939 612.746 404.837 615.4 398.959 617.17C396.027 618.067 393.638 618.75 391.982 619.205L390.073 619.698C389.851 619.768 389.622 619.815 389.391 619.837C389.593 619.721 389.81 619.631 390.035 619.571L391.906 618.939L398.82 616.702C404.66 614.806 412.724 612.101 421.572 609.118C430.42 606.135 438.51 603.481 444.387 601.711C447.332 600.814 449.709 600.131 451.377 599.676L453.286 599.183C453.508 599.113 453.737 599.066 453.968 599.044Z" fill="#263238"/>
<path d="M427.627 292.436L421.117 294.761L418.324 286.255C413.192 270.568 396.836 262.239 381.807 267.535C366.778 272.831 358.777 290.034 363.908 305.72L366.702 314.227L360.167 316.565C357.675 317.532 355.652 319.421 354.517 321.841C353.382 324.261 353.224 327.025 354.075 329.559L372.188 384.91C372.564 386.164 373.188 387.33 374.023 388.338C374.859 389.347 375.888 390.177 377.051 390.779C378.214 391.382 379.485 391.744 380.791 391.846C382.096 391.947 383.409 391.785 384.651 391.369L452.11 367.239C454.635 366.274 456.687 364.368 457.835 361.921C458.983 359.474 459.138 356.677 458.266 354.119L440.14 298.768C439.755 297.517 439.121 296.357 438.277 295.357C437.433 294.356 436.396 293.536 435.228 292.945C434.06 292.354 432.785 292.004 431.479 291.917C430.173 291.829 428.863 292.006 427.627 292.436ZM376.207 301.284C374.823 297.205 375.072 292.749 376.9 288.849C378.729 284.95 381.995 281.909 386.016 280.364C388.001 279.685 390.103 279.413 392.196 279.563C394.288 279.714 396.329 280.285 398.197 281.242C400.064 282.198 401.72 283.521 403.065 285.132C404.41 286.742 405.416 288.607 406.025 290.615L408.806 299.122L378.988 309.79L376.207 301.284ZM414.127 350.403L418.753 364.534C418.838 364.817 418.811 365.123 418.677 365.386C418.543 365.65 418.312 365.852 418.033 365.95L411.549 368.263C411.291 368.334 411.015 368.303 410.779 368.176C410.544 368.049 410.366 367.835 410.285 367.58L405.62 353.512C403.049 353.372 400.581 352.449 398.548 350.868C396.515 349.287 395.013 347.122 394.244 344.664C393.145 341.414 393.346 337.865 394.804 334.76C396.262 331.654 398.866 329.234 402.069 328.004C403.65 327.464 405.324 327.248 406.991 327.368C408.658 327.489 410.283 327.943 411.771 328.705C413.258 329.467 414.577 330.521 415.648 331.803C416.72 333.086 417.522 334.571 418.008 336.17C418.821 338.667 418.888 341.347 418.201 343.882C417.514 346.417 416.103 348.696 414.14 350.44L414.127 350.403Z" fill="#FF6500"/>
<path d="M420.826 294.61C420.826 294.787 408.755 299.324 393.739 304.722C378.722 310.119 366.474 314.454 366.411 314.328C366.348 314.202 378.482 309.626 393.511 304.216C408.54 298.806 420.763 294.445 420.826 294.61Z" fill="#263238"/>
<path d="M435.16 296.935C435.216 297.045 435.263 297.159 435.299 297.277C435.4 297.529 435.514 297.858 435.666 298.263C435.995 299.185 436.45 300.462 437.018 302.055L441.872 316.186C443.895 322.177 446.309 329.281 448.988 337.168C450.252 341.125 451.744 345.245 453.134 349.581C453.879 351.815 454.2 354.168 454.082 356.52C453.975 357.743 453.627 358.933 453.059 360.022C452.451 361.106 451.64 362.063 450.67 362.84C448.717 364.266 446.549 365.371 444.248 366.114L437.739 368.452L425.415 372.864L404.546 380.296L390.453 385.251L386.661 386.515L385.649 386.844C385.541 386.892 385.426 386.922 385.308 386.932C385.308 386.932 385.409 386.932 385.624 386.78L386.61 386.389L390.402 384.96L404.42 379.803L425.251 372.219L437.549 367.77L444.059 365.419C446.294 364.706 448.399 363.634 450.29 362.246C451.193 361.525 451.949 360.637 452.515 359.63C453.05 358.623 453.373 357.518 453.463 356.381C453.579 354.115 453.271 351.847 452.553 349.695C451.188 345.397 449.747 341.239 448.445 337.282C445.816 329.382 443.389 322.253 441.468 316.262C439.546 310.27 437.928 305.455 436.816 302.067C436.285 300.411 435.881 299.122 435.552 298.187L435.249 297.175C435.211 297.099 435.181 297.018 435.16 296.935Z" fill="#263238"/>
<path d="M399.566 279.505C399.566 279.505 398.896 279.176 397.657 278.671C395.891 277.992 394.024 277.616 392.133 277.558C389.331 277.462 386.542 277.989 383.968 279.1C380.837 280.484 378.161 282.723 376.245 285.559C374.316 288.388 373.281 291.73 373.274 295.153C373.301 297.959 373.726 300.747 374.538 303.432C375.196 305.733 375.878 307.566 376.333 308.842C376.602 309.491 376.821 310.158 376.991 310.839C376.631 310.233 376.331 309.594 376.093 308.931C375.575 307.667 374.829 305.872 374.096 303.559C373.196 300.845 372.706 298.012 372.642 295.153C372.609 291.601 373.668 288.123 375.676 285.193C377.659 282.253 380.445 279.945 383.702 278.544C386.357 277.427 389.233 276.934 392.108 277.103C394.04 277.202 395.937 277.651 397.707 278.43C398.181 278.649 398.637 278.902 399.073 279.189C399.252 279.268 399.419 279.374 399.566 279.505Z" fill="#263238"/>
<path d="M400.147 328.965C400.349 328.843 400.56 328.737 400.779 328.649C401.412 328.364 402.067 328.131 402.738 327.954C403.804 327.64 404.903 327.453 406.012 327.398C407.521 327.317 409.031 327.545 410.449 328.068C413.685 329.205 416.655 332.504 418.121 336.916C418.824 339.283 418.824 341.804 418.121 344.171C417.341 346.741 415.944 349.08 414.051 350.984L414.127 350.643C415.808 355.256 417.641 360.262 419.537 365.482L419.651 365.798L419.335 365.912L416.44 366.873L410.12 368.983L409.804 369.085L409.703 368.769C407.971 363.536 406.075 358.657 404.647 353.866L404.925 354.081C402.454 353.876 400.098 352.948 398.15 351.414C396.388 350.056 394.943 348.331 393.916 346.358C392.989 344.608 392.527 342.649 392.576 340.67C392.634 338.647 393.139 336.662 394.055 334.857C394.971 333.052 396.274 331.471 397.872 330.229C398.53 329.695 399.268 329.269 400.059 328.965C399.345 329.389 398.653 329.849 397.986 330.343C396.23 331.828 394.886 333.739 394.08 335.892C393.388 337.516 393.065 339.272 393.133 341.036C393.2 342.8 393.658 344.526 394.472 346.092C395.482 347.991 396.892 349.647 398.605 350.946C400.463 352.405 402.71 353.284 405.064 353.474H405.279L405.342 353.664C406.732 358.366 408.641 363.283 410.398 368.541L409.981 368.339L416.301 366.228L419.183 365.255L418.981 365.684C417.097 360.464 415.277 355.446 413.609 350.832V350.643L413.76 350.491C415.598 348.666 416.968 346.424 417.755 343.956C418.425 341.692 418.425 339.281 417.755 337.017C416.377 332.77 413.533 329.547 410.449 328.409C409.083 327.883 407.626 327.638 406.164 327.689C405.072 327.714 403.986 327.862 402.928 328.131C401.044 328.599 400.16 329.028 400.147 328.965Z" fill="#263238"/>
<path d="M361.077 693.933L234.816 693.351C227.525 693.311 220.547 690.379 215.416 685.198C210.285 680.017 207.42 673.012 207.45 665.72L208.79 349.202C208.805 345.589 209.532 342.015 210.929 338.684C212.326 335.352 214.366 332.329 216.932 329.786C219.498 327.244 222.54 325.232 225.884 323.865C229.228 322.499 232.809 321.805 236.421 321.824L362.67 322.405C369.961 322.442 376.94 325.371 382.073 330.549C387.207 335.728 390.075 342.732 390.048 350.023L388.708 666.529C388.693 670.143 387.967 673.718 386.57 677.051C385.173 680.384 383.134 683.409 380.568 685.953C378.002 688.498 374.96 690.512 371.616 691.882C368.272 693.251 364.691 693.948 361.077 693.933Z" fill="#455A64"/>
<path d="M362.48 333.288H338.009C337.211 333.303 336.423 333.475 335.691 333.794C334.959 334.113 334.297 334.574 333.743 335.149C333.189 335.724 332.754 336.403 332.462 337.146C332.17 337.89 332.028 338.683 332.043 339.482V343.918C332.058 344.716 331.916 345.509 331.624 346.252C331.332 346.994 330.896 347.672 330.342 348.246C329.788 348.821 329.126 349.28 328.394 349.598C327.662 349.916 326.875 350.086 326.077 350.099L278.374 349.884C276.76 349.841 275.229 349.16 274.118 347.989C273.006 346.818 272.405 345.254 272.445 343.64V339.204C272.486 337.592 271.887 336.03 270.778 334.859C269.669 333.689 268.141 333.006 266.53 332.959H257.922L236.497 332.858C231.401 332.828 226.501 334.818 222.869 338.393C219.237 341.968 217.17 346.836 217.12 351.932L215.856 660.879C215.845 663.407 216.331 665.913 217.288 668.253C218.244 670.593 219.653 672.721 221.432 674.517C223.211 676.313 225.327 677.741 227.658 678.719C229.989 679.697 232.49 680.206 235.018 680.218L361.014 680.799C363.544 680.811 366.051 680.324 368.392 679.367C370.734 678.41 372.864 677.001 374.661 675.22C376.458 673.439 377.887 671.322 378.866 668.99C379.844 666.657 380.354 664.154 380.366 661.625L381.63 352.678C381.66 347.568 379.66 342.655 376.069 339.019C372.478 335.383 367.59 333.321 362.48 333.288Z" fill="white"/>
<path d="M345.53 639.581L251.842 639.176C250.869 639.176 250.085 638.114 250.098 636.825L250.199 612.316C250.199 611.052 250.995 609.965 251.969 609.965L345.656 610.395C346.196 610.488 346.678 610.786 347.003 611.226C347.328 611.667 347.47 612.216 347.401 612.758L347.312 637.242C347.312 638.544 346.503 639.593 345.53 639.581Z" fill="#FF6500"/>
<path d="M278.179 619.772H279.259L281.8 625.977H281.887L284.428 619.772H285.508V627.247H284.661V621.568H284.588L282.252 627.247H281.435L279.099 621.568H279.026V627.247H278.179V619.772ZM287.629 627.247H286.68L289.425 619.772H290.36L293.104 627.247H292.155L289.922 620.955H289.863L287.629 627.247ZM287.98 624.327H291.805V625.13H287.98V624.327ZM298.356 621.641C298.313 621.271 298.135 620.984 297.823 620.779C297.512 620.575 297.13 620.473 296.677 620.473C296.346 620.473 296.057 620.526 295.809 620.633C295.563 620.741 295.371 620.888 295.232 621.075C295.096 621.262 295.028 621.475 295.028 621.714C295.028 621.913 295.075 622.085 295.17 622.228C295.267 622.37 295.391 622.488 295.542 622.582C295.693 622.675 295.851 622.752 296.017 622.812C296.182 622.871 296.334 622.918 296.473 622.955L297.232 623.159C297.427 623.21 297.643 623.281 297.882 623.371C298.123 623.461 298.353 623.584 298.572 623.739C298.793 623.893 298.976 624.09 299.119 624.331C299.263 624.572 299.334 624.867 299.334 625.218C299.334 625.622 299.229 625.987 299.017 626.313C298.808 626.639 298.501 626.898 298.097 627.09C297.696 627.282 297.208 627.378 296.634 627.378C296.098 627.378 295.635 627.292 295.243 627.119C294.854 626.946 294.547 626.706 294.323 626.397C294.102 626.088 293.976 625.729 293.947 625.32H294.882C294.906 625.602 295.001 625.836 295.166 626.021C295.334 626.203 295.546 626.339 295.801 626.429C296.059 626.517 296.337 626.561 296.634 626.561C296.979 626.561 297.289 626.505 297.564 626.393C297.839 626.279 298.057 626.12 298.218 625.918C298.378 625.714 298.459 625.476 298.459 625.203C298.459 624.955 298.389 624.753 298.25 624.597C298.112 624.441 297.929 624.315 297.703 624.218C297.477 624.12 297.232 624.035 296.969 623.962L296.05 623.699C295.466 623.531 295.003 623.292 294.663 622.98C294.322 622.669 294.152 622.261 294.152 621.758C294.152 621.339 294.265 620.974 294.491 620.663C294.72 620.349 295.026 620.105 295.411 619.933C295.798 619.757 296.23 619.67 296.707 619.67C297.188 619.67 297.617 619.756 297.991 619.929C298.366 620.099 298.663 620.333 298.882 620.63C299.103 620.927 299.22 621.264 299.232 621.641H298.356ZM305.728 619.772H306.633V624.721C306.633 625.232 306.513 625.688 306.272 626.09C306.033 626.489 305.696 626.804 305.261 627.035C304.825 627.264 304.314 627.378 303.728 627.378C303.142 627.378 302.631 627.264 302.195 627.035C301.759 626.804 301.421 626.489 301.18 626.09C300.942 625.688 300.823 625.232 300.823 624.721V619.772H301.728V624.648C301.728 625.013 301.808 625.338 301.969 625.623C302.129 625.905 302.358 626.128 302.655 626.291C302.954 626.451 303.312 626.532 303.728 626.532C304.144 626.532 304.502 626.451 304.801 626.291C305.1 626.128 305.329 625.905 305.487 625.623C305.648 625.338 305.728 625.013 305.728 624.648V619.772ZM308.441 627.247V619.772H309.346V623.48H309.434L312.791 619.772H313.974L310.835 623.145L313.974 627.247H312.879L310.28 623.772L309.346 624.823V627.247H308.441Z" fill="#28527A"/>
<path d="M270.529 424.107L238.02 423.959L237.992 429.925L270.502 430.073L270.529 424.107Z" fill="#FF6500"/>
<path opacity="0.1" d="M270.529 424.107L238.02 423.959L237.992 429.925L270.502 430.073L270.529 424.107Z" fill="black"/>
<path d="M365.829 460.737C366.085 460.711 366.336 460.652 366.575 460.56C366.925 460.423 367.229 460.191 367.453 459.889C367.676 459.587 367.81 459.228 367.839 458.854C367.839 456.844 367.839 453.912 367.839 450.145C367.839 448.262 367.839 446.151 367.839 443.825C367.839 443.256 367.839 442.662 367.839 442.068C367.922 441.491 367.796 440.904 367.485 440.412C367.311 440.176 367.085 439.983 366.824 439.85C366.563 439.716 366.274 439.644 365.981 439.641H364.009H345.745L240.024 439.249C239.753 439.245 239.485 439.305 239.243 439.426C239.001 439.547 238.792 439.725 238.633 439.944C238.328 440.439 238.211 441.027 238.305 441.6C238.305 442.864 238.305 444.128 238.305 445.392C238.305 447.92 238.305 450.448 238.305 452.976C238.305 454.24 238.305 455.504 238.305 456.768C238.252 457.357 238.252 457.949 238.305 458.538C238.371 458.79 238.494 459.024 238.665 459.221C238.836 459.418 239.05 459.574 239.29 459.675C239.54 459.775 239.806 459.822 240.074 459.814H246.508L274.581 459.966L322.108 460.257L354.15 460.51L362.859 460.611H365.122C365.64 460.611 365.893 460.611 365.893 460.611H365.122H362.859H354.15H322.108L274.581 460.459L246.508 460.345H240.074C239.72 460.36 239.367 460.299 239.038 460.168C238.705 460.026 238.409 459.81 238.172 459.536C237.936 459.263 237.765 458.938 237.673 458.588C237.599 458.257 237.574 457.916 237.597 457.577V456.642C237.597 455.378 237.597 454.114 237.597 452.85C237.597 450.322 237.597 447.794 237.597 445.266C237.597 444.002 237.597 442.738 237.597 441.474C237.573 441.137 237.573 440.799 237.597 440.463C237.644 440.091 237.788 439.738 238.014 439.439C238.232 439.134 238.52 438.886 238.855 438.716C239.19 438.547 239.56 438.461 239.935 438.466L345.656 439.047L363.921 439.173H365.893C366.24 439.174 366.582 439.258 366.89 439.418C367.198 439.579 367.463 439.811 367.662 440.096C368.019 440.646 368.162 441.306 368.067 441.954C368.067 442.548 368.067 443.142 368.067 443.711C368.067 446.012 368.067 448.122 368.067 450.031C368.067 453.823 367.978 456.73 367.953 458.753C367.922 459.142 367.781 459.513 367.546 459.825C367.311 460.136 366.991 460.374 366.626 460.51C366.387 460.658 366.111 460.737 365.829 460.737Z" fill="#E0E0E0"/>
<path d="M307.243 445.594H247.785V451.169H307.243V445.594Z" fill="#FF6500"/>
<path opacity="0.2" d="M307.243 445.594H247.785V451.169H307.243V445.594Z" fill="white"/>
<path d="M270.308 478.533L237.798 478.385L237.771 484.352L270.281 484.499L270.308 478.533Z" fill="#FF6500"/>
<path opacity="0.1" d="M270.308 478.533L237.798 478.385L237.771 484.352L270.281 484.499L270.308 478.533Z" fill="black"/>
<path d="M365.008 515.165C365.263 515.134 365.517 515.087 365.766 515.026C366.119 514.914 366.444 514.727 366.719 514.478C366.994 514.23 367.212 513.925 367.359 513.585C367.558 513.075 367.636 512.525 367.587 511.98C367.587 511.373 367.587 510.716 367.587 509.983C367.587 508.516 367.587 506.848 367.587 504.927V496.9C367.647 496.319 367.518 495.734 367.22 495.232C366.908 494.717 366.418 494.334 365.842 494.157C365.213 494.045 364.572 494.011 363.934 494.056H345.745L240.39 493.664C239.824 493.666 239.277 493.873 238.851 494.247C238.426 494.621 238.151 495.137 238.077 495.699C238.077 496.9 238.077 498.227 238.077 499.491C238.077 502.019 238.077 504.547 238.077 507.075C238.077 508.339 238.077 509.603 238.077 510.867C238.03 511.458 238.055 512.052 238.153 512.637C238.311 513.15 238.636 513.594 239.076 513.901C239.543 514.197 240.091 514.339 240.643 514.305H242.4H246.053L274.025 514.445L321.387 514.735L353.316 514.988L362 515.089H364.262H365.021H364.262H362H353.316H321.387L274 515.039L246.028 514.937H240.529C239.846 514.978 239.167 514.796 238.595 514.419C238.02 514.021 237.6 513.436 237.407 512.763C237.294 512.121 237.26 511.467 237.306 510.817C237.306 509.553 237.306 508.289 237.306 507.025C237.306 504.497 237.306 501.969 237.306 499.441C237.306 498.177 237.306 496.913 237.306 495.649C237.398 494.926 237.751 494.262 238.298 493.78C238.844 493.298 239.548 493.033 240.276 493.032L345.631 493.614L363.82 493.753C364.497 493.711 365.177 493.758 365.842 493.892C366.499 494.106 367.053 494.557 367.397 495.156C367.724 495.713 367.866 496.359 367.801 497.001C367.801 497.595 367.801 498.177 367.801 498.758C367.801 501.046 367.801 503.144 367.801 505.078C367.801 507.012 367.801 508.643 367.801 510.134C367.801 510.855 367.801 511.525 367.801 512.144C367.847 512.709 367.756 513.277 367.536 513.8C367.372 514.149 367.135 514.458 366.84 514.707C366.546 514.955 366.201 515.137 365.83 515.241C365.553 515.264 365.275 515.238 365.008 515.165Z" fill="#E0E0E0"/>
<path d="M270.062 535.323L237.553 535.175L237.526 541.141L270.035 541.289L270.062 535.323Z" fill="#FF6500"/>
<path opacity="0.1" d="M270.062 535.323L237.553 535.175L237.526 541.141L270.035 541.289L270.062 535.323Z" fill="black"/>
<path d="M364.755 571.931C365.011 571.901 365.264 571.855 365.513 571.792C365.865 571.681 366.189 571.495 366.463 571.249C366.738 571.003 366.957 570.701 367.106 570.364C367.304 569.853 367.382 569.304 367.334 568.759C367.334 568.139 367.334 567.495 367.334 566.749C367.334 565.295 367.334 563.614 367.334 561.693V553.667C367.394 553.085 367.265 552.5 366.967 551.998C366.648 551.492 366.16 551.116 365.589 550.936C364.96 550.819 364.319 550.781 363.681 550.823H345.492L240.137 550.431C239.571 550.432 239.024 550.639 238.598 551.013C238.173 551.388 237.898 551.904 237.824 552.466C237.824 553.73 237.824 554.994 237.824 556.258C237.824 558.786 237.824 561.314 237.824 563.842C237.824 565.106 237.824 566.37 237.824 567.634C237.777 568.22 237.803 568.81 237.9 569.391C238.051 569.906 238.378 570.353 238.823 570.655C239.287 570.958 239.837 571.1 240.39 571.059H245.889L273.861 571.211L321.223 571.502L353.152 571.754L361.835 571.855H364.098C364.603 571.855 364.856 571.855 364.856 571.855C364.856 571.855 364.603 571.855 364.098 571.855H361.835H353.152H321.223L273.861 571.716L245.889 571.603H240.39C239.706 571.649 239.026 571.467 238.456 571.084C237.881 570.686 237.461 570.101 237.268 569.429C237.155 568.786 237.121 568.133 237.167 567.482C237.167 566.218 237.167 564.954 237.167 563.69C237.167 561.162 237.167 558.634 237.167 556.106C237.167 554.842 237.167 553.578 237.167 552.251C237.256 551.529 237.606 550.865 238.151 550.383C238.696 549.901 239.397 549.635 240.125 549.634L345.479 550.216L363.668 550.355C364.345 550.313 365.025 550.36 365.69 550.494C366.347 550.708 366.901 551.159 367.245 551.758C367.572 552.315 367.714 552.961 367.65 553.603C367.65 554.197 367.65 554.791 367.65 555.36C367.65 557.648 367.65 559.746 367.65 561.68C367.65 563.614 367.65 565.245 367.65 566.736C367.65 567.457 367.65 568.127 367.65 568.746C367.698 569.311 367.607 569.88 367.384 570.402C367.22 570.751 366.983 571.06 366.688 571.309C366.394 571.557 366.049 571.739 365.678 571.843C365.381 571.944 365.065 571.975 364.755 571.931Z" fill="#E0E0E0"/>
<path d="M305.974 501.598L246.516 501.328L246.491 506.903L305.949 507.172L305.974 501.598Z" fill="#FF6500"/>
<path opacity="0.2" d="M305.974 501.598L246.516 501.328L246.491 506.903L305.949 507.172L305.974 501.598Z" fill="white"/>
<path d="M251.893 561.617C251.855 562.125 251.67 562.612 251.358 563.016C251.047 563.419 250.624 563.723 250.142 563.889C249.66 564.055 249.14 564.075 248.646 563.948C248.153 563.821 247.707 563.552 247.365 563.174C247.023 562.796 246.799 562.326 246.722 561.822C246.645 561.318 246.717 560.802 246.93 560.339C247.143 559.876 247.487 559.485 247.92 559.216C248.353 558.946 248.855 558.81 249.365 558.824C250.069 558.863 250.729 559.178 251.202 559.701C251.676 560.224 251.924 560.912 251.893 561.617Z" fill="#FF6500"/>
<path d="M259.945 561.655C259.969 562.011 259.921 562.369 259.801 562.706C259.682 563.042 259.495 563.351 259.251 563.612C259.008 563.873 258.713 564.082 258.385 564.224C258.058 564.367 257.704 564.44 257.347 564.44C256.99 564.44 256.636 564.367 256.309 564.224C255.981 564.082 255.686 563.873 255.443 563.612C255.199 563.351 255.012 563.042 254.893 562.706C254.773 562.369 254.725 562.011 254.749 561.655C254.725 561.299 254.773 560.941 254.893 560.604C255.012 560.267 255.199 559.959 255.443 559.698C255.686 559.436 255.981 559.228 256.309 559.086C256.636 558.943 256.99 558.87 257.347 558.87C257.704 558.87 258.058 558.943 258.385 559.086C258.713 559.228 259.008 559.436 259.251 559.698C259.495 559.959 259.682 560.267 259.801 560.604C259.921 560.941 259.969 561.299 259.945 561.655Z" fill="#FF6500"/>
<path d="M268.009 561.693C267.971 562.201 267.786 562.688 267.475 563.091C267.164 563.495 266.741 563.799 266.259 563.965C265.776 564.13 265.256 564.151 264.763 564.024C264.269 563.897 263.823 563.628 263.481 563.25C263.139 562.872 262.916 562.401 262.838 561.898C262.761 561.394 262.833 560.878 263.046 560.415C263.259 559.952 263.603 559.561 264.036 559.292C264.469 559.022 264.971 558.886 265.481 558.899C266.184 558.942 266.842 559.258 267.315 559.78C267.787 560.302 268.037 560.989 268.009 561.693Z" fill="#FF6500"/>
<path d="M276.06 561.731C276.023 562.239 275.837 562.726 275.526 563.129C275.215 563.533 274.792 563.837 274.31 564.003C273.828 564.168 273.308 564.189 272.814 564.062C272.32 563.935 271.875 563.666 271.533 563.288C271.191 562.91 270.967 562.439 270.89 561.936C270.812 561.432 270.884 560.916 271.097 560.453C271.31 559.99 271.654 559.599 272.087 559.33C272.52 559.06 273.022 558.924 273.532 558.937C274.235 558.98 274.893 559.296 275.366 559.818C275.839 560.34 276.088 561.027 276.06 561.731Z" fill="#FF6500"/>
<path d="M284.112 561.756C284.077 562.265 283.894 562.753 283.584 563.159C283.274 563.564 282.852 563.87 282.37 564.037C281.888 564.205 281.367 564.227 280.872 564.102C280.378 563.976 279.931 563.707 279.588 563.33C279.244 562.952 279.02 562.482 278.941 561.977C278.863 561.473 278.935 560.957 279.148 560.493C279.36 560.029 279.705 559.638 280.138 559.368C280.571 559.098 281.074 558.962 281.584 558.975C282.285 559.018 282.941 559.332 283.414 559.852C283.886 560.371 284.137 561.054 284.112 561.756Z" fill="#FF6500"/>
<path d="M292.176 561.794C292.142 562.301 291.96 562.786 291.653 563.19C291.346 563.595 290.928 563.901 290.449 564.071C289.971 564.241 289.453 564.267 288.96 564.146C288.467 564.026 288.02 563.764 287.673 563.392C287.327 563.021 287.097 562.556 287.012 562.056C286.926 561.555 286.989 561.041 287.192 560.575C287.395 560.11 287.73 559.714 288.155 559.437C288.58 559.159 289.077 559.012 289.585 559.013C290.297 559.039 290.969 559.347 291.455 559.868C291.941 560.389 292.2 561.082 292.176 561.794Z" fill="#FF6500"/>
<path d="M300.228 561.832C300.253 562.188 300.204 562.546 300.085 562.883C299.966 563.219 299.779 563.528 299.535 563.789C299.291 564.05 298.996 564.259 298.669 564.401C298.341 564.544 297.988 564.617 297.631 564.617C297.273 564.617 296.92 564.544 296.592 564.401C296.265 564.259 295.97 564.05 295.726 563.789C295.483 563.528 295.296 563.219 295.176 562.883C295.057 562.546 295.008 562.188 295.033 561.832C295.008 561.476 295.057 561.118 295.176 560.781C295.296 560.444 295.483 560.136 295.726 559.875C295.97 559.613 296.265 559.405 296.592 559.263C296.92 559.12 297.273 559.047 297.631 559.047C297.988 559.047 298.341 559.12 298.669 559.263C298.996 559.405 299.291 559.613 299.535 559.875C299.779 560.136 299.966 560.444 300.085 560.781C300.204 561.118 300.253 561.476 300.228 561.832Z" fill="#FF6500"/>
<path d="M308.28 561.87C308.245 562.376 308.063 562.862 307.757 563.266C307.45 563.671 307.031 563.977 306.553 564.147C306.074 564.317 305.557 564.343 305.063 564.222C304.57 564.102 304.123 563.839 303.777 563.468C303.431 563.097 303.201 562.632 303.115 562.131C303.03 561.631 303.092 561.116 303.296 560.651C303.499 560.186 303.833 559.79 304.259 559.512C304.684 559.235 305.181 559.088 305.689 559.089C306.401 559.115 307.073 559.423 307.559 559.944C308.044 560.465 308.304 561.158 308.28 561.87Z" fill="#FF6500"/>
<path d="M316.331 561.908C316.297 562.417 316.113 562.905 315.803 563.31C315.493 563.716 315.071 564.022 314.589 564.189C314.107 564.357 313.586 564.379 313.092 564.253C312.597 564.128 312.15 563.859 311.807 563.481C311.464 563.104 311.239 562.634 311.161 562.129C311.082 561.625 311.154 561.109 311.367 560.645C311.58 560.181 311.924 559.79 312.357 559.52C312.79 559.25 313.293 559.113 313.803 559.127C314.504 559.169 315.161 559.484 315.633 560.003C316.105 560.523 316.356 561.206 316.331 561.908Z" fill="#FF6500"/>
<g opacity="0.2">
<path d="M251.893 561.617C251.855 562.125 251.67 562.612 251.358 563.016C251.047 563.419 250.624 563.723 250.142 563.889C249.66 564.055 249.14 564.075 248.646 563.948C248.153 563.821 247.707 563.552 247.365 563.174C247.023 562.796 246.799 562.326 246.722 561.822C246.645 561.318 246.717 560.802 246.93 560.339C247.143 559.876 247.487 559.485 247.92 559.216C248.353 558.946 248.855 558.81 249.365 558.824C250.069 558.863 250.729 559.178 251.202 559.701C251.676 560.224 251.924 560.912 251.893 561.617Z" fill="white"/>
<path d="M259.945 561.655C259.969 562.011 259.921 562.369 259.801 562.706C259.682 563.042 259.495 563.351 259.251 563.612C259.008 563.873 258.713 564.082 258.385 564.224C258.058 564.367 257.704 564.44 257.347 564.44C256.99 564.44 256.636 564.367 256.309 564.224C255.981 564.082 255.686 563.873 255.443 563.612C255.199 563.351 255.012 563.042 254.893 562.706C254.773 562.369 254.725 562.011 254.749 561.655C254.725 561.299 254.773 560.941 254.893 560.604C255.012 560.268 255.199 559.959 255.443 559.698C255.686 559.436 255.981 559.228 256.309 559.086C256.636 558.943 256.99 558.87 257.347 558.87C257.704 558.87 258.058 558.943 258.385 559.086C258.713 559.228 259.008 559.436 259.251 559.698C259.495 559.959 259.682 560.268 259.801 560.604C259.921 560.941 259.969 561.299 259.945 561.655Z" fill="white"/>
<path d="M268.009 561.693C267.971 562.201 267.786 562.688 267.475 563.091C267.164 563.495 266.741 563.799 266.259 563.965C265.776 564.13 265.256 564.151 264.763 564.024C264.269 563.897 263.823 563.628 263.481 563.25C263.139 562.872 262.916 562.401 262.838 561.898C262.761 561.394 262.833 560.878 263.046 560.415C263.259 559.952 263.603 559.561 264.036 559.292C264.469 559.022 264.971 558.886 265.481 558.899C266.184 558.942 266.842 559.258 267.315 559.78C267.787 560.302 268.037 560.989 268.009 561.693Z" fill="white"/>
<path d="M276.06 561.731C276.023 562.239 275.837 562.726 275.526 563.129C275.215 563.533 274.792 563.837 274.31 564.003C273.828 564.168 273.308 564.189 272.814 564.062C272.32 563.935 271.875 563.666 271.533 563.288C271.191 562.91 270.967 562.439 270.89 561.936C270.812 561.432 270.884 560.916 271.097 560.453C271.31 559.99 271.654 559.599 272.087 559.33C272.52 559.06 273.022 558.924 273.532 558.937C274.235 558.98 274.893 559.296 275.366 559.818C275.839 560.34 276.088 561.027 276.06 561.731Z" fill="white"/>
<path d="M284.112 561.756C284.077 562.265 283.893 562.753 283.583 563.159C283.274 563.564 282.851 563.87 282.369 564.037C281.887 564.205 281.367 564.227 280.872 564.102C280.377 563.976 279.931 563.707 279.587 563.33C279.244 562.952 279.019 562.482 278.941 561.977C278.863 561.473 278.934 560.957 279.147 560.493C279.36 560.029 279.704 559.638 280.137 559.368C280.571 559.098 281.074 558.962 281.584 558.975C282.285 559.018 282.941 559.332 283.413 559.852C283.885 560.371 284.136 561.054 284.112 561.756Z" fill="white"/>
<path d="M292.176 561.794C292.142 562.301 291.96 562.786 291.653 563.19C291.346 563.595 290.928 563.901 290.449 564.071C289.971 564.241 289.453 564.267 288.96 564.146C288.467 564.026 288.02 563.764 287.673 563.392C287.327 563.021 287.097 562.556 287.012 562.056C286.926 561.555 286.989 561.041 287.192 560.575C287.395 560.11 287.73 559.714 288.155 559.437C288.58 559.159 289.077 559.012 289.585 559.013C290.297 559.039 290.969 559.347 291.455 559.868C291.941 560.389 292.2 561.082 292.176 561.794Z" fill="white"/>
<path d="M300.228 561.832C300.253 562.188 300.204 562.546 300.085 562.883C299.966 563.219 299.779 563.528 299.535 563.789C299.291 564.05 298.996 564.259 298.669 564.401C298.341 564.544 297.988 564.617 297.631 564.617C297.273 564.617 296.92 564.544 296.592 564.401C296.265 564.259 295.97 564.05 295.726 563.789C295.483 563.528 295.296 563.219 295.176 562.883C295.057 562.546 295.008 562.188 295.033 561.832C295.008 561.476 295.057 561.118 295.176 560.781C295.296 560.444 295.483 560.136 295.726 559.875C295.97 559.613 296.265 559.405 296.592 559.263C296.92 559.12 297.273 559.047 297.631 559.047C297.988 559.047 298.341 559.12 298.669 559.263C298.996 559.405 299.291 559.613 299.535 559.875C299.779 560.136 299.966 560.444 300.085 560.781C300.204 561.118 300.253 561.476 300.228 561.832Z" fill="white"/>
<path d="M308.28 561.87C308.245 562.376 308.063 562.862 307.757 563.266C307.45 563.671 307.031 563.977 306.553 564.147C306.074 564.317 305.557 564.343 305.063 564.222C304.57 564.102 304.123 563.839 303.777 563.468C303.431 563.097 303.201 562.632 303.115 562.131C303.03 561.631 303.092 561.116 303.296 560.651C303.499 560.186 303.833 559.79 304.259 559.512C304.684 559.235 305.181 559.088 305.689 559.089C306.401 559.115 307.073 559.423 307.559 559.944C308.044 560.465 308.304 561.158 308.28 561.87Z" fill="white"/>
<path d="M316.331 561.908C316.297 562.417 316.113 562.905 315.803 563.31C315.493 563.716 315.071 564.022 314.589 564.189C314.107 564.357 313.586 564.379 313.092 564.253C312.597 564.128 312.15 563.859 311.807 563.481C311.464 563.104 311.239 562.634 311.161 562.129C311.082 561.625 311.154 561.109 311.367 560.645C311.58 560.181 311.924 559.79 312.357 559.52C312.79 559.25 313.293 559.113 313.803 559.127C314.504 559.169 315.161 559.484 315.633 560.003C316.105 560.523 316.356 561.206 316.331 561.908Z" fill="white"/>
</g>
<path d="M304.892 379.437C305.77 379.05 306.515 378.414 307.034 377.607C307.553 376.8 307.824 375.858 307.812 374.899C307.845 374.275 307.75 373.651 307.534 373.066C307.318 372.48 306.985 371.944 306.555 371.491C306.125 371.038 305.607 370.677 305.033 370.431C304.46 370.184 303.842 370.057 303.217 370.057C302.593 370.057 301.975 370.184 301.401 370.431C300.827 370.677 300.31 371.038 299.88 371.491C299.45 371.944 299.117 372.48 298.901 373.066C298.684 373.651 298.59 374.275 298.623 374.899C298.603 375.868 298.872 376.821 299.393 377.637C299.915 378.454 300.668 379.098 301.555 379.487C294.477 380.549 294.793 388.234 294.793 388.234L311.528 388.31C311.528 388.31 311.92 380.486 304.892 379.437Z" fill="#FF6500"/>
<path opacity="0.1" d="M304.892 379.437C305.77 379.05 306.515 378.414 307.034 377.607C307.553 376.8 307.824 375.858 307.812 374.899C307.845 374.275 307.75 373.651 307.534 373.066C307.318 372.48 306.985 371.944 306.555 371.491C306.125 371.038 305.607 370.677 305.033 370.431C304.46 370.184 303.842 370.057 303.217 370.057C302.593 370.057 301.975 370.184 301.401 370.431C300.827 370.677 300.31 371.038 299.88 371.491C299.45 371.944 299.117 372.48 298.901 373.066C298.684 373.651 298.59 374.275 298.623 374.899C298.603 375.868 298.872 376.821 299.393 377.637C299.915 378.454 300.668 379.098 301.555 379.487C294.477 380.549 294.793 388.234 294.793 388.234L311.528 388.31C311.528 388.31 311.92 380.486 304.892 379.437Z" fill="black"/>
<path d="M332.086 393.267L272.439 392.996L272.407 400.125L332.054 400.396L332.086 393.267Z" fill="#FF6500"/>
<path opacity="0.2" d="M332.086 393.267L272.439 392.996L272.407 400.125L332.054 400.396L332.086 393.267Z" fill="white"/>
<path d="M112.802 430.212H112.208L110.489 430.338C109.559 430.394 108.634 430.516 107.721 430.704C107.13 430.788 106.543 430.901 105.964 431.046L104.005 431.589C100.67 432.612 97.5239 434.171 94.6891 436.203C90.9437 438.921 87.8162 442.402 85.5124 446.416C84.1583 448.73 83.0808 451.195 82.3019 453.76C81.4834 456.548 81.0122 459.426 80.8988 462.33C80.8235 463.855 80.8488 465.384 80.9747 466.905C80.9747 467.676 81.1895 468.448 81.2907 469.231C81.3757 470.021 81.5237 470.803 81.7331 471.57C82.8697 476.642 85.1759 481.378 88.4678 485.401C91.7597 489.423 95.9461 492.621 100.693 494.739C104.129 496.221 107.811 497.049 111.551 497.178C115.413 497.391 119.28 496.837 122.927 495.548L124.039 495.131H124.191L124.317 495.206L140.256 503.296L139.789 503.7C138.082 498.417 136.439 493.298 134.846 488.381V488.191L134.985 488.052C138.852 484.158 141.722 479.388 143.353 474.148C144.83 469.358 145.261 464.306 144.617 459.334C144.044 454.916 142.624 450.65 140.433 446.77C138.545 443.437 136.11 440.446 133.228 437.922C130.851 435.924 128.221 434.249 125.404 432.942C123.273 432.023 121.054 431.324 118.781 430.856L116.253 430.439L114.42 430.3L113.308 430.224H112.929C113.055 430.21 113.182 430.21 113.308 430.224H114.433L116.266 430.3L118.794 430.667C121.095 431.1 123.345 431.774 125.505 432.676C128.37 433.968 131.048 435.639 133.469 437.644C136.403 440.157 138.89 443.148 140.825 446.492C143.078 450.413 144.542 454.737 145.135 459.22C145.833 464.269 145.432 469.408 143.96 474.287C142.318 479.636 139.404 484.507 135.466 488.482L135.542 488.153C137.134 493.07 138.79 498.189 140.509 503.46L140.749 504.231L140.029 503.865L124.09 495.788H124.368L123.23 496.205C119.513 497.513 115.575 498.08 111.639 497.873C107.819 497.728 104.06 496.871 100.554 495.345C93.8671 492.482 88.3036 487.504 84.7161 481.176C83.0652 478.253 81.8596 475.101 81.139 471.822C80.9417 471.036 80.7939 470.238 80.6966 469.433C80.5955 468.637 80.4311 467.853 80.3932 467.07C80.0511 462.572 80.5265 458.05 81.7963 453.722C82.5946 451.121 83.7022 448.626 85.0953 446.29C87.4541 442.239 90.6467 438.736 94.4615 436.013C97.343 433.976 100.542 432.43 103.929 431.438L105.913 430.932C106.497 430.797 107.088 430.691 107.683 430.616C108.605 430.445 109.539 430.344 110.476 430.313L112.208 430.249C112.405 430.223 112.604 430.21 112.802 430.212Z" fill="#FF6500"/>
<path d="M120.007 459.688H117.668L112.612 452.584V447.92C112.612 447.92 108.997 447.693 109.427 453.798C109.857 459.903 109.427 458.348 109.427 458.348C109.427 458.348 101.755 458.348 101.123 459.043C100.491 459.739 100.453 467.146 100.364 471.279C100.316 472.275 100.602 473.259 101.176 474.075C101.751 474.89 102.582 475.49 103.537 475.779C103.804 475.853 104.081 475.891 104.358 475.892C106.28 475.892 116.05 474.338 116.05 474.338H120.083L120.007 459.688Z" fill="#FF6500"/>
<path d="M126.694 458.437L125.253 474.414H121.258V458.765L126.694 458.437Z" fill="#FF6500"/>
<path d="M174.333 783.702V772.895L154.956 772.755L154.792 789.099L155.993 789.187C161.34 789.529 183.194 790.034 186.784 788.922C190.778 787.683 174.333 783.702 174.333 783.702Z" fill="#FF6500"/>
<path d="M187.239 787.911C187.239 788.088 179.984 788.239 171.047 788.239C162.111 788.239 154.855 788.088 154.855 787.911C154.855 787.734 162.111 787.582 171.047 787.582C179.984 787.582 187.239 787.734 187.239 787.911Z" fill="#263238"/>
<path d="M174.675 785.914C174.511 785.825 174.675 785.256 175.067 784.65C175.459 784.043 175.99 783.79 176.116 783.917C176.242 784.043 175.977 784.523 175.598 785.042C175.219 785.56 174.839 786.002 174.675 785.914Z" fill="#263238"/>
<path d="M175.914 786.622C175.737 786.622 175.825 785.914 176.204 785.244C176.584 784.574 177.089 784.169 177.228 784.27C177.367 784.372 177.14 784.94 176.786 785.534C176.432 786.129 176.078 786.685 175.914 786.622Z" fill="#263238"/>
<path d="M160.695 787.86C160.619 787.86 160.328 787.633 159.911 787.152C159.402 786.535 158.835 785.968 158.218 785.459C157.61 784.974 156.887 784.656 156.119 784.536C155.525 784.46 155.146 784.536 155.108 784.46C155.07 784.384 155.437 784.119 156.132 784.068C157.049 784.049 157.944 784.353 158.66 784.928C159.33 785.474 159.896 786.138 160.328 786.887C160.619 787.443 160.771 787.81 160.695 787.86Z" fill="#263238"/>
<path d="M174.738 783.879C174.827 784.03 174.498 784.41 173.942 784.612C173.386 784.814 172.893 784.738 172.867 784.612C172.842 784.485 173.234 784.22 173.714 784.043C174.195 783.866 174.637 783.727 174.738 783.879Z" fill="#263238"/>
<path d="M174.435 782.83C174.435 783.019 173.929 783.171 173.272 783.183C172.615 783.196 172.096 783.044 172.109 782.867C172.122 782.691 172.64 782.526 173.272 782.514C173.904 782.501 174.41 782.653 174.435 782.83Z" fill="#263238"/>
<path d="M222.05 783.702V772.895L202.673 772.755L202.508 788.935L203.709 789.023C209.056 789.364 230.923 790.034 234.5 788.922C238.494 787.683 222.05 783.702 222.05 783.702Z" fill="#FF6500"/>
<path d="M234.955 787.936C234.955 788.113 227.712 788.265 218.763 788.265C209.814 788.265 202.584 788.113 202.584 787.936C202.584 787.759 209.827 787.607 218.763 787.607C227.7 787.607 234.955 787.759 234.955 787.936Z" fill="#263238"/>
<path d="M222.391 785.914C222.239 785.825 222.391 785.256 222.783 784.65C223.175 784.043 223.705 783.79 223.832 783.917C223.958 784.043 223.693 784.523 223.314 785.042C222.934 785.56 222.555 786.002 222.391 785.914Z" fill="#263238"/>
<path d="M223.63 786.622C223.466 786.622 223.541 785.914 223.933 785.244C224.325 784.574 224.818 784.169 224.957 784.27C225.096 784.372 224.856 784.94 224.502 785.534C224.148 786.129 223.807 786.685 223.63 786.622Z" fill="#263238"/>
<path d="M208.411 787.86C208.335 787.86 208.057 787.633 207.627 787.152C207.118 786.535 206.551 785.968 205.933 785.459C205.326 784.974 204.603 784.656 203.835 784.536C203.254 784.46 202.862 784.536 202.824 784.46C202.786 784.384 203.153 784.119 203.848 784.068C204.765 784.049 205.66 784.353 206.376 784.928C207.05 785.471 207.616 786.135 208.044 786.887C208.335 787.443 208.487 787.81 208.411 787.86Z" fill="#263238"/>
<path d="M222.454 783.879C222.543 784.03 222.214 784.41 221.658 784.612C221.102 784.814 220.609 784.738 220.584 784.612C220.558 784.485 220.95 784.22 221.431 784.043C221.911 783.866 222.353 783.727 222.454 783.879Z" fill="#263238"/>
<path d="M222.176 782.83C222.176 783.019 221.671 783.171 221.013 783.183C220.356 783.196 219.85 783.044 219.863 782.867C219.876 782.691 220.381 782.526 221.013 782.514C221.645 782.501 222.176 782.653 222.176 782.83Z" fill="#263238"/>
<path d="M293.44 462.772C292.935 462.254 291.683 462.507 291.683 462.507C291.809 461.779 291.809 461.035 291.683 460.307C291.456 459.599 289.863 459.739 289.863 459.739C289.79 459.142 289.79 458.54 289.863 457.944C289.876 457.812 289.848 457.679 289.782 457.563C289.716 457.448 289.617 457.356 289.497 457.299C288.743 456.992 287.934 456.845 287.12 456.869C286.147 456.174 290.091 450.65 291.557 448.881C293.023 447.111 292.758 445.733 291.456 445.733C290.559 445.733 285.958 451.042 284.542 452.824C283.126 454.607 279.372 459.562 279.246 455.605C279.119 451.649 277.527 448.666 276.528 448.16C275.53 447.655 274.468 448.843 275.011 449.943C275.489 451.192 275.787 452.503 275.896 453.836C276.033 454.897 275.986 455.975 275.757 457.021C275.338 458.967 274.767 460.877 274.051 462.734H273.95C273.95 462.734 246.369 489.19 244.372 491.073C242.59 492.767 206.743 489.063 199.551 488.305C197.107 487.947 194.639 487.778 192.169 487.799C189.047 487.938 188.491 488.381 185.381 488.419C177.528 488.506 169.694 489.195 161.947 490.479C158.438 491.075 155.162 492.624 152.473 494.955C149.785 497.287 147.789 500.312 146.703 503.7C139.46 526.326 123.053 579.882 120.159 609.965C117.971 613.931 115.997 618.011 114.243 622.188C112.208 627.724 112.701 627.914 113.384 628.04C115.229 628.381 117.327 618.446 118.111 620.848C118.895 623.25 114.129 632.692 116.063 632.97C118.591 633.324 120.601 622.858 120.841 622.023C121.081 621.189 122.333 621.455 122.105 622.238C121.739 623.351 118.187 635.144 120.664 635.523C122.029 635.725 122.181 633.235 122.181 633.235C122.181 633.235 124.709 621.948 125.859 622.175C127.01 622.403 125.783 629.064 125.202 631.289C124.621 633.513 125.43 634.638 126.618 634.095C127.427 633.715 129.361 626.953 129.891 624.754C130.422 622.554 131.75 616.462 133.532 619.988C135.314 623.515 138.019 625.563 139.131 625.613C139.382 625.584 139.618 625.481 139.81 625.317C140.001 625.152 140.139 624.935 140.206 624.691C140.272 624.448 140.265 624.19 140.183 623.951C140.102 623.712 139.952 623.503 139.751 623.351C138.794 622.416 137.973 621.353 137.311 620.191C136.721 619.286 136.294 618.285 136.047 617.233C135.538 615.136 135.241 612.993 135.162 610.837L134.96 609.573C137.791 595.555 145.944 554.412 157.712 528.134L162.541 538.069L164.639 545.425L151.771 577.189L206.654 576.469L198.463 544.945L208.411 512.081C219.168 512.321 246.786 512.725 251.387 510.64C257.176 508.112 287.12 470.293 287.12 470.293C289.072 468.776 290.942 467.156 292.72 465.439C292.72 465.439 294.54 463.91 293.44 462.772Z" fill="#FFBE9D"/>
<path d="M149.357 553.717C150.95 548.282 159.128 521.409 159.128 521.409C159.128 521.409 163.147 543.314 162.085 545.956C161.109 548.217 159.955 550.398 158.635 552.478C149.357 566.597 150.57 573.663 150.57 573.663L206.629 571.956C206.755 564.12 202.116 545.893 201.156 542.986C200.195 540.078 203.393 530.56 203.393 530.56C203.393 530.56 209.713 524.127 209.485 520.815C209.365 517.84 208.997 514.881 208.386 511.967L242.514 513.231L241.439 490.1L192.421 485.195C190.715 490.011 175.281 487.648 175.281 487.648C158.622 488.204 157.586 491.263 150.659 496.647C143.732 502.032 132.268 548.244 132.268 548.244L149.357 553.717Z" fill="#FF6500"/>
<path d="M182.499 548.244C181.527 548.417 180.538 548.468 179.554 548.395C177.721 548.395 175.206 548.269 172.438 547.991C169.669 547.713 167.167 547.321 165.384 546.967C164.402 546.841 163.438 546.594 162.515 546.234C163.503 546.234 164.489 546.327 165.46 546.512C167.255 546.74 169.745 547.056 172.501 547.334C175.256 547.612 177.759 547.801 179.566 547.928C180.552 547.94 181.534 548.046 182.499 548.244Z" fill="#263238"/>
<path d="M186.342 543.479C185.37 543.955 184.342 544.307 183.283 544.528C178.24 545.853 173.037 546.47 167.824 546.36C166.746 546.396 165.667 546.294 164.614 546.057C165.678 545.923 166.752 545.868 167.824 545.893C169.809 545.83 172.539 545.691 175.547 545.337C178.556 544.983 181.235 544.477 183.131 544.073C184.184 543.791 185.258 543.593 186.342 543.479Z" fill="#263238"/>
<path d="M205.201 522.218C205.175 523.182 205.044 524.14 204.809 525.075C204.48 526.832 203.975 529.233 203.33 531.862C202.685 534.491 202.066 536.918 201.51 538.562C201.286 539.502 200.955 540.414 200.524 541.279C200.594 540.318 200.772 539.369 201.055 538.448C201.535 536.476 202.079 534.201 202.685 531.711C203.292 529.221 203.874 526.945 204.354 524.974C204.525 524.024 204.809 523.099 205.201 522.218Z" fill="#263238"/>
<path d="M149.951 550.494C147.027 550.042 144.141 549.37 141.318 548.484C138.433 547.809 135.603 546.922 132.849 545.83C135.772 546.288 138.657 546.96 141.482 547.839C144.367 548.511 147.198 549.399 149.951 550.494Z" fill="#263238"/>
<path d="M208.992 511.689C208.516 511.771 208.028 511.771 207.551 511.689C206.231 511.553 204.935 511.243 203.696 510.766C201.628 509.989 199.746 508.788 198.17 507.24C196.594 505.693 195.359 503.832 194.545 501.779C193.645 499.52 193.26 497.089 193.42 494.663C193.476 492.662 194.075 490.713 195.152 489.025C195.909 487.888 197.04 487.052 198.35 486.662C198.699 486.565 199.061 486.518 199.424 486.523C199.677 486.523 199.803 486.523 199.803 486.523C199.803 486.523 199.272 486.523 198.425 486.864C197.224 487.308 196.206 488.139 195.531 489.228C193.812 491.933 193.331 496.875 195.164 501.488C196.017 503.664 197.353 505.617 199.07 507.202C200.477 508.498 202.098 509.542 203.861 510.286C205.515 510.94 207.236 511.41 208.992 511.689Z" fill="#263238"/>
<path d="M238.457 512.776C238.14 508.9 238.039 505.009 238.153 501.122C238.054 497.238 238.172 493.351 238.507 489.48C238.824 493.352 238.925 497.239 238.811 501.122C238.917 505.01 238.799 508.901 238.457 512.776Z" fill="#263238"/>
<path d="M192.093 486.611C192.232 483.792 192.523 480.607 192.523 480.607C192.523 480.607 199.5 479.836 199.917 472.631C200.334 465.427 199.917 448.805 199.917 448.805L187.277 442.333L173.247 453.368L175.408 489.392L188.276 490.214C189.259 490.241 190.213 489.877 190.929 489.202C191.645 488.526 192.063 487.595 192.093 486.611Z" fill="#FFBE9D"/>
<path d="M193.344 466.931C193.344 466.931 193.344 467.07 193.231 467.234C193.136 467.353 193.015 467.448 192.876 467.509C192.737 467.571 192.586 467.598 192.434 467.588C191.625 467.588 190.842 466.653 190.563 465.566C190.431 465.039 190.431 464.487 190.563 463.96C190.589 463.73 190.672 463.51 190.805 463.321C190.937 463.131 191.115 462.977 191.322 462.873C191.492 462.803 191.683 462.803 191.853 462.873C191.979 462.936 192.081 463.038 192.143 463.164C192.232 463.379 192.143 463.518 192.143 463.505C192.143 463.493 192.143 463.379 192.017 463.252C191.951 463.162 191.854 463.099 191.744 463.076C191.635 463.052 191.52 463.07 191.423 463.126C191.268 463.22 191.139 463.351 191.049 463.508C190.958 463.665 190.908 463.842 190.905 464.023C190.798 464.494 190.798 464.982 190.905 465.452C191.158 466.438 191.84 467.234 192.447 467.31C192.566 467.326 192.686 467.317 192.802 467.285C192.917 467.252 193.024 467.196 193.117 467.12C193.268 467.019 193.319 466.918 193.344 466.931Z" fill="#EB996E"/>
<path d="M204.253 444.912C203.279 441.6 199.753 439.957 196.542 439.047C191.651 437.656 186.367 437.05 181.589 438.807C176.811 440.564 171.073 443.648 171.073 448.919C168.254 448.691 166.636 451.156 165.524 454.215C164.813 456.078 164.386 458.039 164.26 460.029C163.906 466.931 161.972 476.461 157.497 481.517C154.969 484.336 151.468 486.283 150.027 489.796C148.763 492.843 149.42 496.458 148.245 499.542C147.196 502.259 144.883 504.193 143.189 506.557C141.463 509.239 140.448 512.315 140.238 515.496C140.028 518.678 140.63 521.861 141.988 524.746C143.356 527.557 145.282 530.06 147.648 532.103C150.015 534.146 152.772 535.685 155.753 536.628C161.657 538.424 167.953 538.485 173.891 536.805C178.348 535.739 182.505 533.678 186.051 530.775C189.679 527.813 192.171 523.686 193.104 519.096C194.002 513.939 192.561 508.693 191.486 503.561C188.124 487.344 189.085 486.497 193.332 471.443C193.433 471.178 193.483 470.9 193.559 470.634C193.635 470.369 193.673 470.242 193.724 470.04C193.844 469.445 193.908 468.84 193.913 468.233C193.293 468.463 192.62 468.512 191.972 468.373C191.325 468.234 190.731 467.914 190.26 467.449C189.788 466.953 189.459 466.339 189.307 465.671C189.156 465.004 189.188 464.308 189.401 463.657C189.699 462.945 190.143 462.304 190.705 461.775C191.267 461.246 191.933 460.841 192.662 460.585C194.065 460.004 195.569 459.701 196.947 459.056C199.867 457.666 201.889 454.784 203.267 451.763C204.399 449.669 204.749 447.24 204.253 444.912Z" fill="#263238"/>
<path d="M193.85 467.272C194.117 467.667 194.338 468.091 194.507 468.536C194.886 469.332 195.392 470.457 195.948 471.759L196.049 471.999H195.784L194.52 472.113C193.648 472.113 192.915 472.277 192.055 472.265C191.98 472.248 191.911 472.212 191.853 472.162C191.796 472.111 191.752 472.046 191.726 471.974C191.689 471.859 191.689 471.735 191.726 471.62C191.756 471.45 191.794 471.281 191.84 471.115L192.068 470.217C192.182 469.618 192.36 469.034 192.599 468.473C192.575 469.083 192.486 469.689 192.333 470.28L192.156 471.178C192.093 471.481 191.979 471.949 192.156 471.911C192.788 471.911 193.686 471.772 194.52 471.721L195.784 471.607L195.62 471.886C195.076 470.622 194.621 469.433 194.356 468.612C194.123 468.192 193.952 467.741 193.85 467.272Z" fill="#FF6500"/>
<path d="M150.57 573.663L206.629 571.956L231.024 667.186L226.537 776.421H196.896L200.524 669.512L178.846 603.215L182.183 780.655L152.226 781.098L149.079 614.313C148.94 609.674 147.423 599.221 147.992 594.62L150.57 573.663Z" fill="#263238"/>
<path d="M186.304 604.568C185.386 604.625 184.465 604.57 183.561 604.403C181.867 604.201 179.554 603.847 177.013 603.341C174.473 602.836 172.198 602.254 170.554 601.787C169.676 601.594 168.826 601.288 168.026 600.877C168.026 600.687 172.147 601.673 177.203 602.697C182.259 603.721 186.329 604.378 186.304 604.568Z" fill="#455A64"/>
<path d="M226.234 770.43C226.234 770.607 219.522 770.758 211.242 770.758C202.963 770.758 196.239 770.607 196.239 770.43C196.239 770.253 202.951 770.101 211.242 770.101C219.534 770.101 226.234 770.24 226.234 770.43Z" fill="#455A64"/>
<path d="M181.918 776.042C181.918 776.231 175.395 776.371 167.356 776.371C159.317 776.371 152.808 776.231 152.808 776.042C152.808 775.852 159.33 775.713 167.356 775.713C175.383 775.713 181.918 775.865 181.918 776.042Z" fill="#455A64"/>
<path d="M178.05 775.587C177.873 775.587 177.089 736.82 176.293 689.003C175.497 641.186 175.029 602.394 175.193 602.394C175.358 602.394 176.167 641.148 176.95 688.99C177.734 736.833 178.24 775.587 178.05 775.587Z" fill="#455A64"/>
<path d="M222.252 770.43C222.238 770.257 222.238 770.084 222.252 769.911V768.395C222.252 767.03 222.353 765.07 222.429 762.58C222.606 757.524 222.859 750.18 223.175 741.181C223.857 723.08 224.818 698.129 225.867 670.586C225.867 670.321 225.867 670.068 225.867 669.841V669.929C219.231 643.385 213.227 619.293 208.866 601.863L203.81 581.247C203.229 578.833 202.786 576.949 202.47 575.635C202.319 575.015 202.217 574.535 202.129 574.168C202.08 574.004 202.05 573.834 202.041 573.663C202.106 573.822 202.157 573.987 202.192 574.156C202.293 574.51 202.42 574.99 202.597 575.597C202.938 576.861 203.431 578.782 204.063 581.184C205.327 586.063 207.109 593.091 209.334 601.749C213.733 619.167 219.8 643.195 226.524 669.777V669.866C226.524 670.093 226.524 670.359 226.524 670.612C225.399 698.154 224.375 723.093 223.63 741.193C223.238 750.206 222.909 757.499 222.682 762.58C222.555 765.108 222.454 767.03 222.391 768.395C222.391 769.039 222.315 769.545 222.302 769.911C222.304 770.086 222.287 770.259 222.252 770.43Z" fill="#455A64"/>
<path d="M212.582 667.616C210.453 668.316 208.26 668.803 206.035 669.07C203.304 669.537 200.979 669.866 199.93 669.916V669.664C200.271 669.765 200.448 669.828 200.448 669.879C200.448 669.929 200.233 669.879 199.879 669.879H199.121L199.879 669.651C200.865 669.36 203.191 668.88 205.921 668.387C208.111 667.912 210.342 667.654 212.582 667.616Z" fill="#455A64"/>
<path d="M212.064 671.244C210.093 671.334 208.117 671.245 206.161 670.978C204.187 670.938 202.22 670.722 200.284 670.333C204.234 670.011 208.21 670.318 212.064 671.244Z" fill="#455A64"/>
<path opacity="0.2" d="M150.331 575.673C150.994 576.525 151.831 577.228 152.785 577.735C153.739 578.243 154.789 578.544 155.867 578.618C158.125 578.885 160.408 578.843 162.655 578.491C177.127 576.886 192.46 575.407 206.629 571.956C188.288 572.98 168.911 572.639 150.571 573.663L150.381 575.23" fill="black"/>
<g opacity="0.2">
<path d="M169.227 601.521L179.567 641.641L178.846 603.215L169.227 601.521Z" fill="black"/>
</g>
<defs>
<filter id="filter0_d_414_920" x="-518" y="-120" width="1320" height="1320" filterUnits="userSpaceOnUse" color-interpolation-filters="sRGB">
<feFlood flood-opacity="0" result="BackgroundImageFix"/>
<feColorMatrix in="SourceAlpha" type="matrix" values="0 0 0 0 0 0 0 0 0 0 0 0 0 0 0 0 0 0 127 0" result="hardAlpha"/>
<feOffset dx="7" dy="7"/>
<feGaussianBlur stdDeviation="5"/>
<feComposite in2="hardAlpha" operator="out"/>
<feColorMatrix type="matrix" values="0 0 0 0 0.541176 0 0 0 0 0.768627 0 0 0 0 0.815686 0 0 0 1 0"/>
<feBlend mode="normal" in2="BackgroundImageFix" result="effect1_dropShadow_414_920"/>
<feBlend mode="normal" in="SourceGraphic" in2="effect1_dropShadow_414_920" result="shape"/>
</filter>
</defs>
</svg>
